<svg xmlns="http://www.w3.org/2000/svg" viewBox="0 0 3945.01 672.05"><defs><style>.cls-1{fill:#0c3251;}.cls-2{fill:none;stroke:#0c3251;stroke-linecap:round;stroke-linejoin:round;stroke-width:20px;}</style></defs><title>Asset 15</title><g id="Layer_2" data-name="Layer 2"><g id="Art"><path class="cls-1" d="M1689.33,299.76l4.61,7.79a15.55,15.55,0,0,1-4.54,1l-9.58.59-5-3.08-.89-.08c-1.59-.15-6.43-.61-7.68,3.21s2.7,6.72,6.35,8.89l.11.06C1686,325,1711.44,333.5,1725,337.82a44.26,44.26,0,0,1,2.78,4.74s5.28,1.24,2.21-3.17l1.94.6c1.58,3,2.31,4.86,2.31,4.86s5.19,1.41,3.18-3.12l3.46,1.12c1.46,2.9,2.15,4.63,2.15,4.63s5.32,1.44,4.45-2.5l16.12,5.21,0,0,12.17,12.7.47.49.61.29,13.34,6.25,1.6.75,1.57-.8,12.12-6.16,10.71,3.46,3.38,1.09,2.89,2.68,14.37,13.29.65.61.84.31,19.35,7.22,2.47.92,2-1.7,17.67-14.84,6.08-5.11-7.5-2.62-8.72-3-.59-.21-.62,0-4.5-.28.08,0c9.59-3.75,23.46-6.32,37.86-8.07l2.68,2.8-3.3,3.68,19.39,21.22,2.18,2.38,3.07-1,47.6-15.62,2.69-.88.63-2.76,2.33-10.2,14.51,3.33,44.63,67.06,4.39-60.22,58-30.38-89.68-8c-3.7-1.62-13.46-9-21.13-15.33l1-6.85-2.61-3.52-3.13-11.91-18,3.29c-16-15.72-42.22-30.5-50.53-35l1.7-11.37-2.85-2.43,3.26-14.6-69.75,11.39-2.69-.49c-42.38-1.26-84.56,14-104.87,21.35-4.33,1.57-7.76,2.81-9.53,3.27-1.25.32-2,.56-3.2.89-2.79.81-8,2.31-28.84,7.73l-.28.08c-1.84.46-15.37,3-23.47,4.43l-.17,0c-3.61.82-7.69,1.75-10.63,5.62a4.65,4.65,0,0,0-.72,4.18c-.08,3,2.65,5.36,7,6a10.76,10.76,0,0,0,5.42-.49l2,.5C1682.78,296.48,1686.9,297.52,1689.33,299.76Zm-11-9,1.92.49c1.45.36,2.92.74,4.34,1.17-1.43-.44-2.89-.81-4.34-1.17Zm-2.42,0,0-.07.23-.46h0l-.23.46Zm-5.72-.25a7.5,7.5,0,0,0,2.26.69,8.29,8.29,0,0,0,1.68.09l.51-.05-.51.05a8.29,8.29,0,0,1-1.68-.09A7.49,7.49,0,0,1,1670.16,290.47Zm-1-.64.19.15Zm-.46-1.08a.89.89,0,0,1,.09-.25.89.89,0,0,0-.09.25,1.23,1.23,0,0,0,.45,1.07A1.23,1.23,0,0,1,1668.73,288.76Zm3-3a7.88,7.88,0,0,0-2.7,2.26l0,.13,0,.09,0-.09,0-.13A7.88,7.88,0,0,1,1671.71,285.79ZM1828,351.56l-11-1.15-12-1.25,12,1.25Zm130.64-2.33c-2.7.06-6.19.15-10.27.3C1952.44,349.38,1955.94,349.29,1958.64,349.23ZM1868,268.11l-.28-.23-.16-.12.16.12.28.23Zm42.71-20.79h0Zm-21.93,1.87,22.92-6.28,0-.17,0,.17-22.92,6.28Zm22.4-6.48.56,0h0Zm-24.57,1.1,25.87-4.4h0l-25.87,4.4Zm10.69,8.33h0l11.12-4Zm15.69,2.7-1.06,7.09h0Zm5.43,10.64.73.41Zm5.8,3.34.73.43Zm4.43,81.72-2.86.2Zm17.3-.91-5,.22Zm-16.13.84,4.66-.28Zm8.38-.48-2.67.14Zm.09,0,2.59-.13Zm10-.44-2.3.09Zm-34.87,2.2,1.75-.16Zm-175.06-56.47q.06.39.11.78Q1738.45,295.65,1738.39,295.26Zm-5.2,20.74a6.81,6.81,0,0,0,1.26-1,6.81,6.81,0,0,1-1.26,1Zm2.23-16.25a49.81,49.81,0,0,0-.79-7.13,49.78,49.78,0,0,1,.79,7.13,45.64,45.64,0,0,1-1.46,13.82A45.63,45.63,0,0,0,1735.42,299.76Zm-4.2-17.42c3.23,1.17,6,5.94,7.05,12.19-1.09-6.26-3.83-11-7.05-12.19Zm2.11,47.73c-1.24-1.84-2.6-3.76-4.11-5.75h0C1730.73,326.32,1732.09,328.24,1733.33,330.07Zm-3.59,1.92-.45-.43Zm-5.74-4.6-.8-1.07h0Zm-.13-.55.08.07Zm-10.19-17.32a1.63,1.63,0,0,1-.27,1.22,10.26,10.26,0,0,1-.68.85,10.26,10.26,0,0,0,.68-.85A1.63,1.63,0,0,0,1713.67,309.52Zm-3.59,3.9.35-.13Zm9-1.24,0,0h0Zm.67-1-.14.25Zm-1.33-4.7-.29-.27.29.27.15.15ZM1711,313l-.39.2.39-.2a5.82,5.82,0,0,0,.62-.4A5.82,5.82,0,0,1,1711,313Zm6.42-7.29h0l.39.3Zm-13.5-8.86a2.73,2.73,0,0,0,1.25-.83,2.73,2.73,0,0,1-1.25.83Zm.15-2.56,0-.07,0,.07s0,0,0,.06S1704.09,294.32,1704.08,294.3Zm-.16-.31h0l.07.11Zm4.06-5a4.87,4.87,0,0,1-2.24,7.61A4.87,4.87,0,0,0,1708,289Zm-5.16,4.85a.83.83,0,0,0-.37.92.84.84,0,0,0,.11.23.81.81,0,0,1,.27-1.15Zm0,0h0a.6.6,0,0,0,.28.36A.6.6,0,0,1,1702.87,293.79Zm.39.41a.6.6,0,0,0,.35,0,.52.52,0,0,0,.14-.07.52.52,0,0,1-.14.07A.6.6,0,0,1,1703.26,294.2Zm-.59-6.87.2-.06Zm17,42.57c-.62-.44-1.11-.76-1.39-.94C1718.54,329.14,1719,329.46,1719.65,329.89ZM1710,314.13l-.34-.12Zm-.49-.57-.25,0,.25,0,.29-.05Zm-.72.08-.14-.07Zm-3.06-11.82-3.56-3.26h0Zm-4-9.84a2.7,2.7,0,0,0-1.29,2,2.61,2.61,0,0,0,0,.59,2.62,2.62,0,0,1,0-.59A2.7,2.7,0,0,1,1701.72,292Zm-1,3.46h0a2.86,2.86,0,0,1-.11-.27A2.86,2.86,0,0,0,1700.68,295.42Zm27.79,35.36,0,0Zm184.67-94.36-.2.91.2-.91-49.41,7.4,27.8,11.78h0l-27.8-11.78Zm19.2,37.31c-1.86-1.16-3.66-2.26-5.36-3.28C1928.68,271.47,1930.47,272.57,1932.33,273.74Zm10.78,7.07-2.2-1.5-2.19-1.46-2.17-1.42-2.13-1.37,2.13,1.37,2.17,1.42,2.19,1.46Zm3.31,2.32-2.21-1.55Zm3.29,2.39-2.19-1.6Zm9.42,7.5c-1.32-1.14-2.68-2.27-4.07-3.38C1956.45,290.75,1957.81,291.87,1959.13,293ZM1982,296.3h0l-16.21,3h0Zm14,54.84a27,27,0,0,1-3.22.12A27,27,0,0,0,1996.05,351.13Zm-10.84-35.85.27.23-.27-.23.64-4.28ZM2011,337h0a14.47,14.47,0,0,1,.9,2.66l11.58,6.55-11.58-6.55A14.47,14.47,0,0,0,2011,337Zm.77,8.29c-.09.29-.19.59-.3.87C2011.6,345.87,2011.7,345.58,2011.79,345.28Zm-2.61,4.18a11,11,0,0,1-1.09.91,11,11,0,0,0,1.09-.91Zm10.08,8.84h0l-12.4-7.14.63-.38-.63.38Zm-30.82-7.46.88.37-.88-.37Zm9.38,2.23a25,25,0,0,1-6.57-1.18A25,25,0,0,0,1997.83,353.07Zm-.7-2.06q.95-.13,1.85-.34Q1998.08,350.87,1997.13,351Zm2.59-.52a20.1,20.1,0,0,0,2-.62A20.1,20.1,0,0,1,1999.72,350.48Zm9-17.89h0Zm33.47,24.18-13.9-5.61,13.9,5.61Zm-13.86-.65h0L2011,347.07l.15-.25-.15.25Zm-45.92-48.25,1.26-1.85-1.26,1.85Zm-8.49-7.07,4.56-1.9-4.56,1.9Zm6.56.57-8.5,4.94h0Zm3.33,1.82.34,1.31-.34-1.31Zm1.34,3,.08.11-.08-.11Zm21.57,25.32.27.16Zm-.9-.55.26.16Zm4.24,2.23h0Zm24.78,81h0l3.63-49.75,46.83-24.51h0l-46.83,24.51Zm-70-65-.07,0h-.07c-.12,0-2.32,0-6,.09,3.72-.08,5.92-.09,6-.09h.07l.07,0,12.74,2.93Zm-148.26,13.42,4,.25,27.48-1-27.48,1Zm-5.46-1.69h0l3.92,1.27Zm-66.79-21.58,16.46,5.32,5.27.69-5.27-.69Zm-6.23-7.18q.63.64,1.27,1.31t1.28,1.38c1.06,1.18,2.11,2.42,3.09,3.71-1-1.29-2-2.53-3.09-3.71q-.64-.71-1.28-1.38T1738.11,332.12Zm-4.42,3.77,1.55.47,2.56.83h0l-2.56-.83Zm-5-1.57h0c-.62-1-1.3-2.06-2-3.16C1727.37,332.26,1728.05,333.32,1728.67,334.32Zm-5.46-1.75h0l4.92,1.58Zm-52.73-22h0c0,.52,2,2.26,4.32,3.63,11.1,5.77,31.65,12.9,45.67,17.5q-.57-.7-1.19-1.43t-1.29-1.48l.09.05-.09-.05q.67.75,1.29,1.48t1.19,1.43c-14-4.6-34.57-11.73-45.67-17.5-2.3-1.37-4.35-3.11-4.32-3.63Zm29.65-1.17c-.65.38-1.33.77-2.05,1.16h0C1698.8,310.15,1699.48,309.76,1700.13,309.38Zm-2.07,1.17-.48.23Zm-25.9-.25h0Zm-.58,0-.47,0Zm10.2,3.14-1.48.23h0l1.48-.23Zm12.44-.3,2.66-1.92-2.66,1.92-.53,0Zm-3.37-17.87a12.86,12.86,0,0,1,2.61,2.37,26.49,26.49,0,0,0,9.47,7.41,11.4,11.4,0,0,0,1.2.47l1.21.35-1,.75c-.91.68-2,1.38-3.12,2.09,1.16-.72,2.21-1.42,3.12-2.09l1-.75-1.21-.35a11.4,11.4,0,0,1-1.2-.47,26.49,26.49,0,0,1-9.47-7.41A12.86,12.86,0,0,0,1690.87,295.28Zm-.89-.57a18.33,18.33,0,0,0-1.63-.86A18.3,18.3,0,0,1,1690,294.71Zm-2.82-1.37-.95-.36Z"/><path class="cls-1" d="M329.9,475.06c-10.41,0-19.74,1.32-26.1,3.41a121.07,121.07,0,0,0-32-70.13c6.26-2.62,14.8-8.77,23.11-17.08,13.55-13.55,21.38-27.71,17.47-31.61s-18.06,3.92-31.61,17.47c-8.37,8.37-14.55,17-17.14,23.24A121,121,0,0,0,189.6,369.8c2.08-6.36,3.39-15.66,3.39-26,0-19.17-4.48-34.71-10-34.71s-10,15.54-10,34.71c0,10.36,1.31,19.66,3.39,26a121,121,0,0,0-74.05,30.56c-2.59-6.27-8.77-14.87-17.14-23.24-13.55-13.55-27.71-21.38-31.61-17.47S57.49,377.7,71,391.26c8.31,8.31,16.85,14.47,23.11,17.08a121.07,121.07,0,0,0-32,70.6c-6.35-2.36-16.27-3.87-27.42-3.87-19.17,0-34.71,4.48-34.71,10s15.54,10,34.71,10c10.81,0,20.46-1.42,26.82-3.65A121,121,0,0,0,91.59,571C85.67,574,78.27,579.64,71,586.86c-13.55,13.55-21.38,27.71-17.47,31.61S71.63,614.56,85.19,601c7.17-7.17,12.73-14.5,15.81-20.4a121,121,0,0,0,75.07,31.73c-1.89,6.31-3.07,15.18-3.07,25,0,19.17,4.48,34.71,10,34.71s10-15.54,10-34.71c0-9.82-1.18-18.69-3.07-25a121,121,0,0,0,76.43-33c2.9,6.1,8.75,14,16.44,21.67,13.55,13.55,27.71,21.38,31.61,17.47s-3.92-18.06-17.47-31.61c-7.81-7.81-15.81-13.71-21.95-16.57a120.93,120.93,0,0,0,29.45-78.44c6.34,2,15.4,3.21,25.46,3.21,19.17,0,34.71-4.48,34.71-10S349.07,475.06,329.9,475.06ZM183,595.54A104.46,104.46,0,1,1,287.45,491.08,104.58,104.58,0,0,1,183,595.54Z"/><path class="cls-1" d="M223.11,428.73a27,27,0,0,0-6.88-8.57c-2.65-2-4.43-5.25-8.1-5.93-.41-.08-.67-.91-1-1.33l-11.66-1c-1.63,1-3.35,1.21-4.93,1.83-4.32,1.69-8.56,3.61-12.14,6.62-3.95,3.32-6.62,7.39-7.19,12.71a52.77,52.77,0,0,1-1.5,6.47c-.34,2.32.07,4.79-.43,7.06a17.53,17.53,0,0,0,.16,8.77c1.07,3.78,1.27,8,5.05,10.55l-.56,6.49h-3.09l-3.53-2-5.13-1.25c-.75,1.44-2.28.66-3.51.31l-3.41-1.08-1.53-1.69L148.88,465h-5.66l-4.52,4.16c-.7,1.59-1.93,3-2.46,4.55a28.9,28.9,0,0,0-1.31,13.87c.58,3.66,1.77,7.41.35,11.21a34.72,34.72,0,0,0-1,4.19c-3.13,3.11-6.5,6.48-9.91,9.8a6.13,6.13,0,0,1-2,1.32c-2.91,1.12-5.85,2.15-8.61,3.16a16.33,16.33,0,0,0-.54,9.07c1.16,5.18,2.59,10.32,2.15,15.72-.1,1.21,0,2.44,0,4.43,1.74-.28,2.88-.52,4-.65,2.33-.26,4.88-1.16,6.95-.52,3.46,1.07,6.89.95,10.46,1.09,1.69,2.1,4.06,2.47,6.6,2.46,5.59,0,11.18,0,16.78,0h17.88c2.28,3.4,6.33,5.23,7.91,9.3.23.59,1.24,1,2,1.25a18.32,18.32,0,0,0,10.08.34,44.12,44.12,0,0,1,8.5-1c2.13-.09,4.25-.38,6.25-.57a10.43,10.43,0,0,1,7.87-4.67,32.57,32.57,0,0,0,5.11-1.42l.37-3.74c2.37-1.77,2.86-4.08,1.69-6.78a9.43,9.43,0,0,1,0-6.87,15.63,15.63,0,0,0-.55-10.77c1-2.94,2.38-5.74,1.63-9.06-2-2.27-4.95-4-5-7.53l-2.11-2.11-6.49-2.42.71-3.34-4.58-6.83c3.46-1.56,6.1-3.48,7-7.05,0-.1,0-.23.07-.3,2.85-3.1,4.11-6.94,5.17-10.89a34.43,34.43,0,0,0,1.64-10.22c-.13-3.33-.1-6.66-.14-9.76l2.5-3.06,3.94-.23a29,29,0,0,0,1.09-5,14.05,14.05,0,0,0-4.86-11.12A24.8,24.8,0,0,1,223.11,428.73Z"/><path class="cls-2" d="M1065.3,440.9c-15,34.6-68.31,37.31-99.15,30.21-31.53-7.26-61.16-22.37-93.26-26.34s-69.91,7.47-82,37.47"/><path class="cls-2" d="M1026.81,503.82c-16,36.84-72.73,39.73-105.58,32.16-33.57-7.73-65.12-23.82-99.31-28s-74.44,8-87.33,39.9"/><path class="cls-2" d="M1044.81,386.7c-9.36,21.52-42.49,23.21-61.68,18.79-19.61-4.52-38-13.92-58-16.38s-43.49,4.65-51,23.31"/><path class="cls-1" d="M2533.11,264.56l-118,60-118-60a22.69,22.69,0,0,0-3,11.3V391.4c0,11.61,8.44,21,18.84,21h204.31c10.41,0,18.84-9.41,18.84-21V275.86A22.69,22.69,0,0,0,2533.11,264.56Z"/><path class="cls-1" d="M2316,260.84l98.14,47.6a2.22,2.22,0,0,0,2,0l98.14-47.6c2.44-1.18,1.68-5.24-1-5.24H2316.94C2314.28,255.6,2313.53,259.65,2316,260.84Z"/><path class="cls-1" d="M3690.38,72.54l.82,5.73,46.27-53.67-105.75,5.71,40.66,38.57h14.2C3689.11,68.88,3689.39,69.16,3690.38,72.54Z"/><polygon class="cls-1" points="3741.2 78.47 3740.77 24.65 3694.38 78.47 3741.2 78.47"/><path class="cls-1" d="M3875.64,78.46h-131.9l-.44-55.06c2.77-3.41,12.3-15.28,12.78-17.69.56-2.82-6.77-5.71-6.77-5.71L3605.5,9.1,3562.92,39l18.89,9.31,43.43-17.67,3-.16,40.46,38.38H3636.8a58.08,58.08,0,0,0,.56-9.31c-.71-3-4.79-2.4-5.36-2.4-2.82.85-5.5,3.38-5.36,10l-5.08,7.75-62.74-33.56L3504,87.62H3395.14s20.3,55.7,164.11,69.24c142.12-2.26,367.14-13.71,367.14-13.71L3945,98.26Zm-134.44,0h-46.83l46.39-53.82Zm-68.83-9.59-40.66-38.57,105.75-5.71L3691.2,78.27l-.82-5.73c-1-3.38-1.27-3.67-3.81-3.67Z"/></g></g></svg>