<svg xmlns="http://www.w3.org/2000/svg" xmlns:xlink="http://www.w3.org/1999/xlink" viewBox="0 0 1818 781.57"><defs><style>.cls-1{fill:#fff;}.cls-2{stroke:#fff;stroke-miterlimit:10;stroke-width:28.03px;fill:url(#linear-gradient);}.cls-3{fill:none;}.cls-4{fill:url(#linear-gradient-2);}.cls-5{fill:#133a54;}.cls-6{fill:url(#linear-gradient-3);}.cls-7{fill:url(#linear-gradient-4);}.cls-8{fill:#2bb673;}</style><linearGradient id="linear-gradient" x1="14.02" y1="380.31" x2="1770.75" y2="380.31" gradientUnits="userSpaceOnUse"><stop offset="0" stop-color="#38a9e0"/><stop offset="1" stop-color="#2bb673"/></linearGradient><linearGradient id="linear-gradient-2" x1="1141.19" y1="613.52" x2="1141.19" y2="483.67" gradientUnits="userSpaceOnUse"><stop offset="0" stop-color="#19467f"/><stop offset="1" stop-color="#00b1b7"/></linearGradient><linearGradient id="linear-gradient-3" x1="799.89" y1="670.65" x2="799.89" y2="595.25" xlink:href="#linear-gradient-2"/><linearGradient id="linear-gradient-4" x1="557.08" y1="617.96" x2="557.08" y2="555.53" xlink:href="#linear-gradient-2"/></defs><title>blue fish_1</title><g id="Layer_2" data-name="Layer 2"><g id="Art"><path class="cls-1" d="M562.7,409.23a1.88,1.88,0,0,1,1.75,1.92l.35,3.4c.1,1.3-.49,2-1.64,1.92a45.73,45.73,0,0,0-9-.13c-4.64.59-6.12,2.71-5.49,7.52l2.34,18c.63,4.81,2.58,6.55,6.9,6a31,31,0,0,0,5.13-1.26l-1.48-11.93-4,.5c-1.06.13-1.73-.47-1.89-1.69l-.45-3.52c-.15-1.22.35-2,1.41-2.11,3.78-.48,5.68-.71,9.46-1.17,1.07-.13,1.74.48,1.88,1.7L570.49,449c.16,1.36-.1,2.14-1.39,2.71a34.92,34.92,0,0,1-10.46,3.5c-9.38,1.19-13.33-3.09-14.59-12.5l-2.37-17.68c-1.31-9.75,1.8-14.67,11.36-15.88A53,53,0,0,1,562.7,409.23Z"/><path class="cls-1" d="M602.84,404.4a1.67,1.67,0,0,1,1.92,1.73l2.77,28.29c.94,9.59-2.66,15.55-11.47,16.48-8.64.91-13.44-4-14.53-13.67l-3.19-28.31c-.14-1.22.38-2,1.46-2.09l3.77-.42c1.08-.12,1.75.5,1.88,1.72l3.15,28.94c.51,4.69,2.94,6.89,6.69,6.5s5.73-3.07,5.25-7.76l-3-29c-.12-1.22.4-2,1.48-2.07Z"/><path class="cls-1" d="M622.66,402.54c1.08-.09,1.74.53,1.84,1.76l3.55,40.77c.11,1.22-.42,2-1.47,2l-3.68.33c-1.05.09-1.7-.53-1.81-1.76l-3.71-40.76c-.11-1.22.42-2,1.5-2.06Z"/><path class="cls-1" d="M664.93,416.7l.7,10.64c.72,11-3.77,17.82-14.24,18.6-3.1.23-6.16.32-9.15.36-1.06,0-1.64-.62-1.74-1.85l-3.34-41.68c-.1-1.23.28-1.88,1.23-2,2.71-.38,6.34-.77,10.12-1C658.4,399,664.18,405.18,664.93,416.7Zm-20.25-9.39,2.39,31.41a33.84,33.84,0,0,0,4.07,0c5-.37,7.93-3.92,7.48-10.47l-.79-11.45c-.5-7.16-3.84-10.29-9-9.9A41,41,0,0,0,644.68,407.32Z"/><path class="cls-1" d="M696.09,397.56c1.14-.05,1.77.6,1.83,1.83l.17,3.62c.06,1.3-.51,2-1.64,2.06-5.19.25-7.79.38-13,.67l.59,10.78c4.68-.26,7-.38,11.71-.6,1.13-.05,1.76.6,1.81,1.83l.17,3.55c.06,1.23-.5,2-1.62,2.06-4.67.23-7,.35-11.66.6l.63,11.46c5.1-.28,7.66-.41,12.76-.66,1.12-.05,1.74.6,1.8,1.9l.17,3.62c.06,1.23-.5,1.94-1.61,2-7.22.34-10.83.54-18,1-1.05.06-1.68-.59-1.75-1.81L676,400.54c-.07-1.23.49-1.95,1.57-2C685,398.11,688.69,397.91,696.09,397.56Z"/><path class="cls-1" d="M742.83,396.06a1.87,1.87,0,0,1,1.55,2.08c0,1.42,0,2.13.08,3.55s-.74,2-1.88,1.75a34.62,34.62,0,0,0-7.21-.78c-3.77.1-5.1,1.85-5,4.92,0,.57,0,.86,0,1.43.07,2.46.76,3.39,3.88,4.47l5.29,1.85c5.64,2,7.78,5.16,7.92,12.06l0,1.3c.16,8.2-3.44,12.76-12.76,13a32.19,32.19,0,0,1-8.13-1.06,1.91,1.91,0,0,1-1.59-2.07c0-1.48,0-2.21-.06-3.69s.58-2.07,1.77-1.77a28.35,28.35,0,0,0,7.63,1.07c4.59-.13,6.14-1.94,6.06-5.08l0-1.78c-.06-2.39-.86-3.6-3.19-4.43l-5.81-2c-5.87-2-7.94-4.88-8.17-11.92l0-.68c-.27-8.13,3.25-12.77,11.84-13A38.1,38.1,0,0,1,742.83,396.06Z"/><path class="cls-1" d="M778,395.48c1.14,0,1.75.68,1.75,1.91,0,1.45,0,2.17,0,3.62s-.59,2-1.73,2c-5.2,0-7.8,0-13,.09,0,4.32.07,6.48.11,10.79,4.69,0,7-.06,11.73-.08,1.13,0,1.73.68,1.73,1.91v3.55c0,1.23-.59,2-1.71,2-4.67,0-7,0-11.68.08l.12,11.48c5.11-.05,7.67-.07,12.78-.09,1.12,0,1.71.68,1.71,2s0,2.17,0,3.62c0,1.23-.58,1.91-1.7,1.92-7.23,0-10.84.05-18.06.15-1.06,0-1.65-.66-1.67-1.89q-.29-20.46-.58-40.93c0-1.23.57-1.92,1.66-1.94C766.88,395.53,770.59,395.5,778,395.48Z"/><path class="cls-1" d="M816.92,407.52c0,.66,0,1,0,1.64a12.08,12.08,0,0,1-6.79,11.1c3.29,7.18,4.92,10.78,8.14,18,.62,1.38.13,2.33-1.16,2.3l-4.17-.07a2,2,0,0,1-2-1.4c-3-6.71-4.48-10.07-7.51-16.77a27.09,27.09,0,0,1-4.62-.11c-.05,6.48-.08,9.72-.14,16.19,0,1.23-.6,1.91-1.66,1.9l-3.7,0c-1.06,0-1.64-.69-1.63-1.92q.09-20.53.18-41.07c0-1.57.68-2.26,2-2.31,3.17-.13,6.68-.23,9-.2C812.94,394.85,817.06,399.87,816.92,407.52ZM799,402c0,5.22-.07,7.83-.11,13.05a31.14,31.14,0,0,0,3.86.31c4.94.05,6.93-2.37,7-6.41l0-1.09c.06-3.89-1.89-5.91-6.87-6C801.92,401.91,800.18,402,799,402Z"/><path class="cls-1" d="M855.24,396.86c1.26,0,1.77.89,1.36,2.24q-6,20.23-11.9,40.52a1.76,1.76,0,0,1-1.87,1.58l-5.51-.17a1.78,1.78,0,0,1-1.83-1.69q-4.49-20.61-9.15-41.18c-.27-1.37.29-2.18,1.49-2.15l4.09.1a1.85,1.85,0,0,1,1.88,1.76q3.32,18,6.5,36,4.39-17.78,8.93-35.52c.28-1.15.9-1.68,1.92-1.64Z"/><path class="cls-1" d="M872.55,397.62c1.08.05,1.65.76,1.59,2q-1,20.44-2,40.88c-.06,1.23-.68,1.88-1.74,1.83l-3.69-.18c-1.06,0-1.61-.76-1.56-2L867,399.28c.06-1.23.69-1.88,1.77-1.83Z"/><path class="cls-1" d="M907.55,399.86a1.88,1.88,0,0,1,1.36,2.22l-.23,3.41c-.09,1.36-.86,2-2,1.65a27.88,27.88,0,0,0-6.4-1.38c-5.21-.33-7,1.41-7.32,6.94l-1,16.78c-.33,5.46,1.33,7.4,6.32,7.72a27.94,27.94,0,0,0,6.42-.54c1.13-.19,1.74.46,1.71,1.83l-.19,3.62a2,2,0,0,1-1.67,2,36.7,36.7,0,0,1-7.51.54c-9.6-.61-12.68-5.55-12.14-15l1-17.81c.54-9.62,4.35-14.08,14.08-13.46A31.4,31.4,0,0,1,907.55,399.86Z"/><path class="cls-1" d="M941,402.22c1.14.1,1.68.83,1.57,2.06l-.31,3.61c-.11,1.29-.77,1.92-1.9,1.82-5.19-.45-7.78-.66-13-1.07l-.85,10.76c4.68.37,7,.56,11.7,1,1.13.1,1.66.83,1.56,2.05l-.31,3.54c-.11,1.23-.76,1.92-1.89,1.83-4.66-.4-7-.59-11.65-1l-.9,11.44c5.1.4,7.65.61,12.75,1.05,1.12.1,1.65.83,1.53,2.12l-.31,3.61c-.11,1.23-.75,1.85-1.86,1.76-7.21-.62-10.82-.91-18-1.46-1.05-.08-1.59-.8-1.5-2l3.06-40.81c.09-1.23.74-1.86,1.82-1.78C929.9,401.29,933.6,401.59,941,402.22Z"/><path class="cls-2" d="M1770.75,351.25l-360.13,11.59c-15.49-4.64-57.82-29.29-91.35-50.68l.74-27.71L1308,271.73l-18.19-45.82L1220,247.69c-71.27-54.69-182.49-100.74-217.67-114.6l1.24-46-12.5-8.29L997,19.25l-271.57,79-10.9-.64c-169,15.5-329.14,96.54-406.26,135.57-16.46,8.33-29.46,14.9-36.27,17.59-4.82,1.9-7.87,3.2-12.27,5.07-10.67,4.55-30.54,13-110.85,44.67l-1.09.47c-7.1,2.73-59.64,19.2-91.08,28.95l-.64.21c-13.93,5-29.71,10.66-39.5,27.45a18.6,18.6,0,0,0-.86,17c1.12,12,13.13,20,30.78,20.47,4.78.1,13.8-.31,21.3-4.56,2.64.36,5.32.7,8,1,14.9,1.87,31.77,4,42.51,11.71l22.1,28.73A62.22,62.22,0,0,1,122.81,438L85,445l-21.33-9.83-3.56.1c-6.39.17-25.84.69-28.95,16.47s14,25.39,29.52,32.26l.47.18c56,20.93,161.26,42.4,217.19,53a177.07,177.07,0,0,1,13.32,17.49S313.26,557,298.95,541l8,1.45c7.74,11.22,11.53,18.19,11.53,18.19s21.3,3.08,11.11-13.94l14.3,2.77c7.2,10.82,10.77,17.36,10.77,17.36s21.84,3.14,16.46-12.09l66.58,12.89.19.12,54.48,44.56,2.09,1.71,2.57.84,56,18.36,6.72,2.2,5.87-3.94,45.15-30.34L655,609.72,669,612.43l12.8,9.24,63.51,45.86,2.89,2.09,3.47.83L832,689.76l10.26,2.46,7.2-7.71,63-67.52,21.69-23.24L903.06,587l-36.13-7.88-2.44-.53-2.49.15-18,1.08.3-.15c36.29-19.54,90.14-36.45,146.48-50.4l12,9.84-11.33,16.22,87.31,74.9,9.81,8.41,11.7-5.48,181.54-85.07,10.24-4.8L1293.2,532l4.31-41.67,59.26,6.22,209.77,244.8L1554.86,500Z"/><polygon class="cls-3" points="62.2 480.3 62.2 480.3 62.2 480.3 62.2 480.3"/><polygon class="cls-4" points="1244.04 484.39 1252.1 489.37 1226.58 487.31 1188.35 493.69 1221.65 506.04 1156.4 499.03 1128.37 503.71 1184.37 528.39 1105.09 507.6 1088 510.46 1147.25 545.04 1055.2 519.78 1049.27 521.99 1123.3 567.59 1030.25 529.07 1026.01 530.65 1102.6 593.49 1004.61 538.62 1091.91 613.52 1273.45 528.45 1277.77 486.75 1248.38 483.67 1244.04 484.39"/><path class="cls-5" d="M1770.89,349.73l-360.13,11.59c-15.49-4.64-57.82-29.29-91.35-50.68l.74-27.71-12.06-12.72-18.19-45.82-69.75,21.78c-71.27-54.69-182.49-100.74-217.67-114.6l1.24-46-12.5-8.29,5.87-59.57-271.57,79-10.9-.64c-169,15.5-329.14,96.54-406.26,135.57-16.46,8.33-29.46,14.9-36.27,17.59-4.82,1.9-7.87,3.2-12.27,5.07-10.67,4.55-30.54,13-110.85,44.67l-1.09.47c-7.1,2.73-59.64,19.2-91.08,28.95l-.64.21c-13.93,5-29.71,10.66-39.5,27.45a18.6,18.6,0,0,0-.86,17c1.12,12,13.13,20,30.78,20.47,4.78.1,13.8-.31,21.3-4.56,2.64.36,5.32.7,8,1,14.9,1.87,31.77,4,42.51,11.71l22.1,28.73A62.23,62.23,0,0,1,123,436.48l-37.77,7-21.33-9.83-3.56.1c-6.39.17-25.84.69-28.95,16.47s14,25.39,29.52,32.26l.47.18c56,20.93,161.26,42.4,217.19,53a177.07,177.07,0,0,1,13.32,17.49s21.56,2.37,7.25-13.65l8,1.45c7.74,11.22,11.53,18.19,11.53,18.19s21.3,3.08,11.11-13.94L344,548c7.2,10.82,10.77,17.36,10.77,17.36s21.84,3.14,16.46-12.09l66.58,12.89.19.12,54.48,44.56,2.09,1.71,2.57.84,56,18.36,6.72,2.2,5.87-3.94,45.15-30.34,44.23,8.56,13.95,2.71,12.8,9.24L745.4,666l2.89,2.09,3.47.83,80.35,19.31,10.26,2.47,7.2-7.71,63-67.52,21.69-23.24-31.06-6.77-36.13-7.88-2.44-.53-2.49.15-18,1.08.3-.15c36.29-19.54,90.14-36.45,146.48-50.4l12,9.84L991.59,553.8l87.31,74.9,9.81,8.41,11.7-5.48,181.54-85.07,10.24-4.8,1.16-11.25,4.31-41.67,59.26,6.22,209.77,244.8L1555,498.52Zm-1634.77,57c15.16,14.86,24.34,16.74,24.34,16.74l-8.21,5.34ZM62.2,480.3h0ZM557.69,618l-56-18.36-38-31.08,66,19-65.26-29.79,99.3,24-84.08-24.42,93.45,11.3s-54.79-12.27-60.44-12.13l-12.91-1,99.74.93,51-.86Zm305.53-22.7,36.13,7.88-63,67.52L756,651.34l-33.56-24.23,67.8,11.08-86.61-24.66-3.19-2.3,130.76,16.64L711,608l125.81,3.43s-76.55-8.63-83.74-7.87l-34,.28Zm410.23-66.8-181.54,85.07-87.31-74.9,98,54.87L1026,530.65l4.25-1.58,93.05,38.52-74-45.6,5.93-2.21L1147.25,545,1088,510.46l17.09-2.86,79.28,20.79-56-24.68,28-4.68,65.24,7-33.29-12.34,38.23-6.39,25.52,2.07-8.06-5,4.34-.73,29.39,3.09Zm92.36-50.33-129-13.55-.29,0-.29,0c-2.85.36-285.51,36.39-399.87,97.69L670.52,588.68l-17.28,1-21.4-4.14,26.73-18,40.65-27.32-49,.83-50.82.86-152.11,3.58-23.27-.22-68-13.16C327.65,501.9,288.77,480,288.77,480a511,511,0,0,1,40.31,47l-10.56-2c-.22,0-3.12-.54-8.16-1.46a272.77,272.77,0,0,0-44.55-32.59c10,10.37,18.53,20.22,25.63,29.1-6.6-1.24-14.17-2.68-22.53-4.3a238.13,238.13,0,0,0-22.58-12.55q6.07,5.3,11.28,10.33C199.66,502,114.58,483.57,67.69,466c-9.8-4.33-18.8-10.26-18.93-12.33,0,0,1.24-1.85,11.42-2.18L82.88,462l12.25-2.27-5.75,1.63,55-8.83,11.5-10.63c.83-.55,1.7-1,2.51-1.6a219.86,219.86,0,0,0,23-18.56l3.65-3.46-5-.82c-.22,0-22.78-4-46.21-26.15-14.57-13.79-35.5-16.42-55.74-19-3.17-.4-6.31-.79-9.39-1.23l-7.33-1-.67,2c-.49,1.45-5.46,3.91-13.68,3.7A26.56,26.56,0,0,1,35.31,373c-2.56-1.07-4.12-3-4.07-5a4,4,0,0,1,.44-1.62l.31-.81,0-.51c6.07-10.42,15.88-14.55,30-19.64,15.06-4.66,90.37-28,93.43-29.85C236,283.82,256,275.28,266.8,270.69c4.24-1.81,7.18-3.06,11.81-4.89,7.61-3,20.33-9.44,37.94-18.35C392.53,209,550.64,129,715.83,113.81L900.28,128.4,784.16,95.07l192.71-53.3-1.2,12.16L875,83.92l99.32-16.65,3.54-.59-3.63,1.49-88,36.06,86.3-18.72,2.57-.56-2.58,1.29-51,25.61,63.12-17.59,1.05.7-1.31,48.71,1.67.62c1.48.55,149.09,56.28,229.44,120.82l1,.83,62.94-19.66,1.59,4-31.48,17.83,34.63-9.89.82,2.06L1244.52,291,1290,272.81l2.66,6.7.37.4-6.3,12.18,10-8.12,5.41,5.85-.82,30.35,1.18.76c3.29,2.14,80.94,52.48,105.94,58.18l.31.07h0l302.15-9.73-174.18,120,9.65,199.39Z"/><polygon points="972.54 86.24 975.12 84.95 972.55 85.5 972.49 86.2 972.54 86.24"/><polygon points="977.89 66.69 974.35 67.28 974.26 68.17 977.89 66.69"/><path class="cls-5" d="M516.53,309.72c4,10.79,18,16.29,28.25,17.39,14.68,1.58,29.77-1,43.3-6.42,8-3.21,18.65-14.59,18.81-24.9.4-25.81-7.78-88.74-7.78-88.74a9.34,9.34,0,0,0-10.05-8.82l-19.59,1.14a9,9,0,0,0-8.68,10L570.22,281a12,12,0,0,1-10.82,13.31,12.68,12.68,0,0,1-13.86-9.12l-18.23-70a9.52,9.52,0,0,0-11.18-6.69l-14.92,3.08a8.89,8.89,0,0,0-7,11S508,287,516.53,309.72Z"/><path class="cls-5" d="M623.29,272.33a45,45,0,0,0,8.58,22.74h0C643.2,310.67,668,318,687,311.39l11.76-4.1c7.85-2.74,12.81-9.71,12.33-17.35L710.3,277c-.34-5.55-5.76-9.8-11.89-9.34l-10.44.79a10.48,10.48,0,0,0-9.68,7.66L678,277.5c-.93,3.92-5.58,6.06-9.72,4.47l-1.14-.44a8.15,8.15,0,0,1-5.44-7l-2.87-48.41a7.59,7.59,0,0,1,4.68-7.31l1.52-.69a7.66,7.66,0,0,1,9.77,3.07l3.3,3.49a18.33,18.33,0,0,0,14,5.53l.62,0c8.51-.35,15.22-6.44,15.57-14.11l.07-1.59c-1.42-10.08-9-18.71-19.54-22.36l-.79-.27c-17.79-6.14-43.36-1.56-56.83,10.17a32.49,32.49,0,0,0-11.43,27.24Z"/><path class="cls-5" d="M739.92,307.18l16.05-.88a9.41,9.41,0,0,0,8.89-9.48l-.31-33,23.81,43.14a9.41,9.41,0,0,0,9.11,4.82l23.62-2.2a9.41,9.41,0,0,0,7.16-14.27l-29-47.46,28.24-36.9a9.41,9.41,0,0,0,1.83-11.29s-11.79-7.24-16.48-10.14c.37.42-7.94-3.56-11.82-.74l-36.74,48.84-.4-43a9.41,9.41,0,0,0-9.42-9.32H740.37a9.41,9.41,0,0,0-9.4,9.32l-1,103.1A9.41,9.41,0,0,0,739.92,307.18Z"/><path class="cls-1" d="M811.65,188.69c-1.38-.83-.59-.33,1.21.78A10.16,10.16,0,0,0,811.65,188.69Z"/><path class="cls-5" d="M852,226.5l8.74,1.87a9.41,9.41,0,0,0,7.84-1.85l22.18-17.74c5.51-4.41-7.59-14.24-14-17.1l-15.22-6.75a9.41,9.41,0,0,0-11.54,3.24l-3.71,23.76A9.41,9.41,0,0,0,852,226.5Z"/><path class="cls-5" d="M908.86,265.76c3.11,1.59,6.56,2.64,9.27,4.84s4.49,6.11,2.86,9.2c-1.09,2.08-3.4,3.23-5.65,4a29,29,0,0,1-15.1.73c-4.83-1.07-9.31-3.36-14.13-4.52s-10.43-.93-14.06,2.43c-5,4.65-3.77,13.38.91,18.34s11.63,7,18.3,8.59c12.53,2.92,25.63,4.72,38.28,2.22s24.84-9.92,30.45-21.45,2.91-27.17-7.77-34.27c-5.21-3.46-11.63-4.67-17.06-7.77s-10-9.54-7.6-15.31c2.91-7,12.16-8.84,17-4.57,2.72,2.39,4.39,8.55,6,11.78l4.75,1.84c11.84,1.77,19.45-1.91,20.6-15.58.83-9.93-5.15-19.66-13.65-24.93s-19.1-6.49-29-5.07c-16.24,2.31-32,12.24-38.2,27.31S894.3,258.33,908.86,265.76Z"/><path class="cls-5" d="M505.46,352.65a357.82,357.82,0,0,0-21.86-84l-16.62-42a9.41,9.41,0,0,0-11.61-5.5l-19.87,6.35a9.41,9.41,0,0,0-5.77,12.7l.66,1.53a385.54,385.54,0,0,1,29.33,110.12l.51,4.51c.11,1,.16,1.92.26,2.88-18.2,2.88-32.49,5.42-42.09,7.22a258.62,258.62,0,0,0-26.2-84.59l-12.5-24.44a9.41,9.41,0,0,0-12.51-4.17l-18,8.8a9.41,9.41,0,0,0-4.52,12.15l15.9,37.25a198.45,198.45,0,0,1,15,96.83l-4.08,42.59a9.41,9.41,0,0,0,7.14,10l24.75,6A9.41,9.41,0,0,0,414.95,459l3.38-25.52a258.57,258.57,0,0,0,2.19-30.44Q441,399,461.2,395.31a224.39,224.39,0,0,1-6,39.53L443.24,483.6a9.41,9.41,0,0,0,9.06,11.65l30.14.26a9.41,9.41,0,0,0,8.87-6.05l.16-.43a260.58,260.58,0,0,0,16.9-101.66C989.12,312.21,1335,432.92,1335,432.92,1048.75,301.68,680.61,329,505.46,352.65Z"/><path class="cls-5" d="M1413.13,444.33l79.37,17.2-73.21-27.6c.29-.72.64-1.4.88-2.14a38.33,38.33,0,0,0,1.66-7.95l.09-.24,125.93,33.8L1419.23,404a57.91,57.91,0,0,0-4.85-10.13,51.4,51.4,0,0,1-2,23.6c-9.33,28.16-42.32,44.05-81,42.32,23.42,7.09,46.56,5.81,63.64-2l62.39,16.74-52.73-22.35A45.47,45.47,0,0,0,1413.13,444.33Z"/><path class="cls-5" d="M232.94,411.78l-64.23-21.07,49.17,35.09a6.23,6.23,0,0,1,1.48,7.87c-8,14.66-17.71,13.51-17.71,13.51s25.82,10.45,40.68-10.33C252.14,423.14,236.06,413.43,232.94,411.78Z"/><path class="cls-6" d="M753,603.61c7.2-.76,83.74,7.87,83.74,7.87L711,608l120.22,19.81L700.43,611.23l3.19,2.3,86.61,24.66-67.8-11.08L756,651.34l80.35,19.31,63-67.52-36.13-7.88-144.14,8.64Z"/><path class="cls-7" d="M650.5,555.59l-51,.86-99.74-.93,12.91,1c5.65-.14,60.44,12.13,60.44,12.13l-93.45-11.3,84.08,24.42-99.3-24,65.26,29.79-66-19,38,31.08,56,18.36Z"/><path class="cls-5" d="M276.38,312.24c11.49,16.58,20.74,40.18,25.13,67.17,3.94,24.25,3.29,47.17-1,65.62,12.87-10.44,19-38.54,13.89-69.95C309,341.84,292.86,316,276.38,312.24Z"/><path class="cls-8" d="M160.46,423.5s-9.18-1.89-24.34-16.74l16.13,22.08Z"/><path class="cls-5" d="M170.55,362.43A10.81,10.81,0,0,1,175,383.1,19.6,19.6,0,1,0,161.39,379a10.79,10.79,0,0,1,9.16-16.55Z"/><path class="cls-5" d="M172.53,377.26a3.38,3.38,0,0,0,1.85-4.4,3.34,3.34,0,0,0-.79-1.15,2.35,2.35,0,0,1-1.13,1,2.4,2.4,0,0,1-3.12-1.31,3.33,3.33,0,0,0-1.21,4A3.38,3.38,0,0,0,172.53,377.26Z"/><path class="cls-5" d="M562.84,407.71a1.88,1.88,0,0,1,1.75,1.92l.35,3.4c.1,1.3-.49,2-1.64,1.92a45.71,45.71,0,0,0-9-.13c-4.64.59-6.12,2.71-5.49,7.52l2.34,18c.63,4.81,2.58,6.55,6.9,6a31,31,0,0,0,5.13-1.26l-1.48-11.93-4,.5c-1.06.13-1.73-.47-1.89-1.69l-.45-3.53c-.15-1.22.35-2,1.42-2.11,3.78-.48,5.68-.71,9.46-1.17,1.06-.13,1.74.48,1.88,1.7l2.47,20.63c.16,1.36-.1,2.14-1.39,2.71a34.92,34.92,0,0,1-10.46,3.5c-9.38,1.19-13.33-3.09-14.59-12.5l-2.37-17.68c-1.31-9.75,1.8-14.67,11.36-15.88A53,53,0,0,1,562.84,407.71Z"/><path class="cls-5" d="M603,402.87a1.67,1.67,0,0,1,1.92,1.73l2.77,28.29c.94,9.59-2.66,15.55-11.47,16.48-8.64.91-13.44-4-14.53-13.67l-3.19-28.31c-.14-1.22.38-2,1.46-2.09l3.77-.42c1.08-.12,1.75.5,1.88,1.72l3.15,28.94c.51,4.69,2.94,6.89,6.69,6.5s5.73-3.07,5.25-7.76l-3-29c-.12-1.22.4-2,1.48-2.07Z"/><path class="cls-5" d="M622.81,401c1.08-.09,1.74.53,1.84,1.76l3.55,40.77c.11,1.22-.42,2-1.47,2l-3.68.33c-1.05.09-1.7-.53-1.81-1.76l-3.71-40.76c-.11-1.22.43-2,1.5-2.06Z"/><path class="cls-5" d="M665.07,415.18l.7,10.64c.72,11-3.77,17.82-14.24,18.6-3.1.23-6.16.32-9.15.36-1.06,0-1.64-.62-1.74-1.85l-3.34-41.68c-.1-1.23.28-1.88,1.23-2,2.71-.38,6.34-.77,10.12-1C658.55,397.45,664.32,403.66,665.07,415.18Zm-20.25-9.39,2.39,31.41a33.85,33.85,0,0,0,4.07,0c5-.37,7.93-3.92,7.48-10.47L658,415.25c-.5-7.16-3.84-10.29-9-9.9A41,41,0,0,0,644.82,405.79Z"/><path class="cls-5" d="M696.23,396c1.14-.05,1.77.6,1.83,1.83l.17,3.62c.06,1.3-.51,2-1.64,2.06-5.19.25-7.79.38-13,.67l.59,10.78c4.68-.26,7-.38,11.71-.6,1.13-.05,1.76.6,1.81,1.83l.17,3.55c.06,1.23-.5,2-1.62,2.06-4.67.23-7,.35-11.66.6l.63,11.46c5.11-.28,7.66-.41,12.77-.66,1.12-.05,1.74.6,1.8,1.9l.17,3.62c.06,1.23-.5,1.94-1.61,2-7.22.34-10.83.54-18,1-1.05.06-1.68-.59-1.75-1.81q-1.2-20.43-2.4-40.86c-.07-1.23.49-1.95,1.57-2C685.14,396.59,688.84,396.39,696.23,396Z"/><path class="cls-5" d="M743,394.54a1.87,1.87,0,0,1,1.55,2.09c0,1.42,0,2.13.08,3.55s-.75,2-1.88,1.75a34.7,34.7,0,0,0-7.21-.78c-3.77.1-5.1,1.85-5,4.92,0,.57,0,.86,0,1.43.07,2.46.76,3.39,3.88,4.47l5.29,1.85c5.64,2,7.78,5.16,7.92,12.06l0,1.3c.16,8.2-3.44,12.76-12.76,13a32.15,32.15,0,0,1-8.13-1.06,1.91,1.91,0,0,1-1.59-2.07l-.06-3.69c0-1.37.58-2.07,1.77-1.77a28.35,28.35,0,0,0,7.63,1.07c4.59-.13,6.14-1.94,6.06-5.08l0-1.78c-.06-2.39-.85-3.6-3.19-4.43l-5.81-2c-5.87-2-7.94-4.88-8.17-11.91l0-.68c-.27-8.13,3.25-12.77,11.84-13A38.1,38.1,0,0,1,743,394.54Z"/><path class="cls-5" d="M778.14,394c1.14,0,1.74.68,1.75,1.91,0,1.45,0,2.17,0,3.62s-.59,2-1.73,2c-5.2,0-7.8,0-13,.09l.11,10.8c4.69,0,7-.06,11.73-.08,1.13,0,1.73.68,1.73,1.91v3.55c0,1.23-.59,2-1.71,2-4.67,0-7,0-11.68.08l.12,11.48c5.11-.05,7.67-.07,12.78-.09,1.12,0,1.71.68,1.71,2s0,2.17,0,3.62c0,1.23-.58,1.91-1.7,1.92-7.23,0-10.84.05-18.07.15-1.06,0-1.65-.66-1.67-1.89q-.29-20.46-.58-40.93c0-1.23.57-1.92,1.66-1.94C767,394,770.73,394,778.14,394Z"/><path class="cls-5" d="M817.06,406c0,.66,0,1,0,1.64a12.07,12.07,0,0,1-6.79,11.1c3.29,7.18,4.92,10.78,8.14,18,.62,1.38.13,2.33-1.16,2.3l-4.17-.07a2,2,0,0,1-2-1.4c-3-6.71-4.48-10.07-7.51-16.77a27.08,27.08,0,0,1-4.62-.11c-.05,6.48-.08,9.72-.14,16.19,0,1.23-.6,1.91-1.66,1.9l-3.7,0c-1.06,0-1.64-.69-1.63-1.92q.09-20.53.18-41.07c0-1.57.68-2.26,2-2.31,3.17-.13,6.68-.23,9-.2C813.08,393.33,817.2,398.35,817.06,406Zm-17.94-5.5c0,5.22-.07,7.83-.11,13.05a30.94,30.94,0,0,0,3.86.31c4.94.05,6.93-2.37,7-6.41,0-.44,0-.66,0-1.09.06-3.89-1.89-5.91-6.87-6C802.06,400.39,800.32,400.44,799.13,400.5Z"/><path class="cls-5" d="M855.39,395.34c1.26,0,1.77.89,1.35,2.24q-6,20.24-11.9,40.52a1.76,1.76,0,0,1-1.87,1.58l-5.51-.17a1.78,1.78,0,0,1-1.83-1.69q-4.49-20.61-9.15-41.18c-.27-1.37.29-2.18,1.49-2.15l4.09.1a1.85,1.85,0,0,1,1.88,1.76q3.32,18,6.5,36,4.39-17.78,8.93-35.52c.28-1.15.9-1.68,1.92-1.64Z"/><path class="cls-5" d="M872.69,396.1c1.08.05,1.65.76,1.59,2l-2,40.88c-.06,1.23-.68,1.88-1.74,1.83l-3.69-.18c-1.05,0-1.61-.76-1.55-2q.93-20.44,1.86-40.89c.06-1.23.69-1.88,1.77-1.83Z"/><path class="cls-5" d="M907.69,398.34a1.88,1.88,0,0,1,1.36,2.22l-.23,3.41c-.09,1.36-.86,2-2,1.65a27.88,27.88,0,0,0-6.4-1.38c-5.21-.33-7,1.41-7.32,6.94l-1,16.78c-.33,5.46,1.33,7.4,6.32,7.72a27.91,27.91,0,0,0,6.42-.54c1.13-.19,1.74.46,1.71,1.83l-.19,3.62a2,2,0,0,1-1.67,2,36.77,36.77,0,0,1-7.51.53c-9.6-.61-12.68-5.55-12.14-15l1-17.81c.54-9.62,4.35-14.08,14.08-13.46A31.39,31.39,0,0,1,907.69,398.34Z"/><path class="cls-5" d="M941.13,400.7c1.14.1,1.68.83,1.57,2.06l-.31,3.61c-.11,1.29-.77,1.92-1.9,1.82-5.19-.45-7.78-.66-13-1.07l-.85,10.76c4.68.37,7,.56,11.7,1,1.13.1,1.66.83,1.56,2.05l-.31,3.54c-.11,1.23-.76,1.92-1.89,1.83-4.66-.4-7-.59-11.65-1l-.9,11.44c5.1.4,7.65.61,12.76,1.05,1.12.1,1.65.83,1.53,2.12l-.31,3.61c-.11,1.23-.75,1.85-1.86,1.76-7.21-.62-10.82-.91-18-1.46-1.05-.08-1.59-.81-1.5-2L920.83,401c.09-1.23.74-1.86,1.82-1.78C930,399.77,933.74,400.06,941.13,400.7Z"/></g></g></svg>