<svg xmlns="http://www.w3.org/2000/svg" viewBox="0 0 776 1005.12"><defs><style>.cls-1{fill:#0c3251;}</style></defs><title>Checklist</title><g id="Layer_2" data-name="Layer 2"><g id="Art"><path class="cls-1" d="M696.79,1005.12H79.21c-43.68,0-79.21-36.79-79.21-82V82C0,36.79,35.53,0,79.21,0H696.79C740.47,0,776,36.79,776,82V923.11C776,968.33,740.47,1005.12,696.79,1005.12ZM79.21,27.45c-29.06,0-52.7,24.48-52.7,54.57V923.11c0,30.09,23.64,54.57,52.7,54.57H696.79c29.06,0,52.7-24.48,52.7-54.57V82c0-30.09-23.64-54.57-52.7-54.57Z"/><path class="cls-1" d="M193.19,299.94H106.67a15.77,15.77,0,0,1-15.75-15.75V197.67a15.77,15.77,0,0,1,15.75-15.75h86.52a15.77,15.77,0,0,1,15.75,15.75v86.52A15.77,15.77,0,0,1,193.19,299.94Zm-86.52-102.6a.33.33,0,0,0-.33.33v86.52a.33.33,0,0,0,.33.33h86.52a.33.33,0,0,0,.33-.33V197.67a.33.33,0,0,0-.33-.33Z"/><path class="cls-1" d="M193.19,533.46H106.67A15.77,15.77,0,0,1,90.92,517.7V431.18a15.77,15.77,0,0,1,15.75-15.75h86.52a15.77,15.77,0,0,1,15.75,15.75V517.7A15.77,15.77,0,0,1,193.19,533.46Zm-86.52-102.6a.33.33,0,0,0-.33.33V517.7a.33.33,0,0,0,.33.33h86.52a.33.33,0,0,0,.33-.33V431.18a.33.33,0,0,0-.33-.33Z"/><path class="cls-1" d="M193.19,767H106.67a15.77,15.77,0,0,1-15.75-15.75V664.7a15.77,15.77,0,0,1,15.75-15.75h86.52a15.77,15.77,0,0,1,15.75,15.75v86.52A15.77,15.77,0,0,1,193.19,767Zm-86.52-102.6a.33.33,0,0,0-.33.33v86.52a.33.33,0,0,0,.33.33h86.52a.33.33,0,0,0,.33-.33V664.7a.33.33,0,0,0-.33-.33Z"/><path class="cls-1" d="M144.15,285.73a14.65,14.65,0,0,1-10.27-4.2L77,225.68a14.65,14.65,0,1,1,20.54-20.9l46.09,45.28,130-140.18a14.65,14.65,0,1,1,21.49,19.93L154.89,281a14.66,14.66,0,0,1-10.4,4.69Z"/><path class="cls-1" d="M657.86,258.72h-400a8,8,0,1,1,0-16h400a8,8,0,0,1,0,16Z"/><path class="cls-1" d="M657.86,482.44h-400a8,8,0,1,1,0-16h400a8,8,0,0,1,0,16Z"/><path class="cls-1" d="M657.86,710.16h-400a8,8,0,1,1,0-16h400a8,8,0,0,1,0,16Z"/></g></g></svg>