<svg xmlns="http://www.w3.org/2000/svg" viewBox="0 0 242 156.82"><defs><style>.cls-1{fill:#0c3251;}</style></defs><title>contactus</title><g id="Layer_2" data-name="Layer 2"><g id="Art"><path class="cls-1" d="M239,9,121,69,3,9a22.69,22.69,0,0,0-3,11.3V135.8c0,11.61,8.44,21,18.84,21H223.16c10.41,0,18.84-9.41,18.84-21V20.26A22.69,22.69,0,0,0,239,9Z"/><path class="cls-1" d="M21.88,5.24,120,52.84a2.22,2.22,0,0,0,2,0l98.14-47.6c2.44-1.18,1.68-5.24-1-5.24H22.86C20.2,0,19.45,4.06,21.88,5.24Z"/></g></g></svg>