<svg xmlns="http://www.w3.org/2000/svg" viewBox="0 0 50 50"><defs><style>.cls-1{fill:#fff;}</style></defs><title>Huck_Fishing_Logo</title><g id="Art"><path class="cls-1" d="M36.83,48.35V29.47l5.2-.2.72-6.22H36.82c0-.71,0-1.35,0-2s0-1.4,0-2.1a1.75,1.75,0,0,1,1.78-1.8h4.09V10.71l-.35,0c-2.13,0-4.27-.06-6.4,0a6.81,6.81,0,0,0-5.73,2.91,7.34,7.34,0,0,0-1.11,4.15c0,1.73,0,3.47,0,5.27H25.38V29.4h3.67V48.35H9.37A8,8,0,0,1,1.79,42a8.26,8.26,0,0,1-.12-1.41c0-10.49.05-21,0-31.46A7.34,7.34,0,0,1,7.24,1.9a8.11,8.11,0,0,1,2-.25q16.07,0,32.14,0a6.85,6.85,0,0,1,7,7q0,16.13,0,32.25a7.53,7.53,0,0,1-6.07,7.37,15.84,15.84,0,0,1-2.6.08Z"/></g></svg>