<svg xmlns="http://www.w3.org/2000/svg" viewBox="0 0 549.87 156.86"><defs><style>.cls-1{fill:#0c3251;}</style></defs><title>Fleet</title><g id="Layer_2" data-name="Layer 2"><g id="Art"><path class="cls-1" d="M295.24,72.54l.82,5.73L342.32,24.6,236.57,30.31l40.66,38.57h14.2C294,68.88,294.25,69.16,295.24,72.54Z"/><polygon class="cls-1" points="346.06 78.47 345.63 24.65 299.24 78.47 346.06 78.47"/><path class="cls-1" d="M480.5,78.46H348.6l-.44-55.06c2.77-3.41,12.3-15.28,12.78-17.69C361.5,2.89,354.17,0,354.17,0L210.36,9.1,167.78,39l18.89,9.31L230.1,30.66l3-.16,40.46,38.38H241.66a58.08,58.08,0,0,0,.56-9.31c-.71-3-4.79-2.4-5.36-2.4-2.82.85-5.5,3.38-5.36,10l-5.08,7.75L163.69,41.38,108.85,87.62H0s20.3,55.7,164.11,69.24c142.12-2.26,367.14-13.71,367.14-13.71l18.61-44.89Zm-134.44,0H299.24l46.39-53.82Zm-68.83-9.59L236.57,30.31,342.32,24.6,296.06,78.27l-.82-5.73c-1-3.38-1.27-3.67-3.81-3.67Z"/></g></g></svg>