<svg xmlns="http://www.w3.org/2000/svg" viewBox="0 0 50 50"><defs><style>.cls-1{fill:#fff;}</style></defs><title>Huck_Fishing_Logo</title><g id="Art"><path class="cls-1" d="M25,48.87c-3.27-.06-6.55-.08-9.82-.18A15.34,15.34,0,0,1,7.38,46.6,12.3,12.3,0,0,1,1.7,38.22a43.24,43.24,0,0,1-.53-8.42c0-4.11,0-8.22,0-12.33a23.25,23.25,0,0,1,1-7.51,12.19,12.19,0,0,1,9.58-8.28,40.68,40.68,0,0,1,8.32-.53c4.14,0,8.29,0,12.43,0a23.25,23.25,0,0,1,7.51,1,12.19,12.19,0,0,1,8.28,9.58,40.92,40.92,0,0,1,.53,8.37c0,4.13,0,8.25,0,12.38a23.26,23.26,0,0,1-1,7.51,12.18,12.18,0,0,1-9.58,8.28,43.14,43.14,0,0,1-8.47.54c-1.58,0-3.17,0-4.75,0ZM5.4,25h.07c0,2-.05,4,0,6a49.39,49.39,0,0,0,.42,6.08,7.89,7.89,0,0,0,6.16,6.84,23.85,23.85,0,0,0,5.8.55c3.29.06,6.58.09,9.87,0,2.9,0,5.82-.06,8.7-.33A8.07,8.07,0,0,0,44,37.55,31.47,31.47,0,0,0,44.52,31q.09-6,0-12.07a50,50,0,0,0-.41-6.08A8,8,0,0,0,37.61,6,31.84,31.84,0,0,0,31,5.46q-6-.08-12,0a43.4,43.4,0,0,0-6.13.42,7.71,7.71,0,0,0-6.68,5.8,15.67,15.67,0,0,0-.57,3.59C5.49,18.51,5.47,21.75,5.4,25Z"/><path class="cls-1" d="M37.24,25A12.25,12.25,0,1,1,25.13,12.73,12.19,12.19,0,0,1,37.24,25ZM25,17a7.95,7.95,0,1,0,8,7.93A8,8,0,0,0,25,17Z"/><path class="cls-1" d="M40.58,12.23a2.88,2.88,0,0,1-2.85,2.91,2.93,2.93,0,0,1-2.89-2.89A2.87,2.87,0,0,1,37.69,9.4,2.79,2.79,0,0,1,40.58,12.23Z"/></g></svg>