<svg xmlns="http://www.w3.org/2000/svg" xmlns:xlink="http://www.w3.org/1999/xlink" viewBox="0 0 2135.76 895.25"><defs><style>.cls-1{isolation:isolate;}.cls-2{fill:none;}.cls-3{fill:url(#linear-gradient);}.cls-4{fill:#312e2b;}.cls-5{fill:url(#linear-gradient-2);}.cls-6{fill:url(#linear-gradient-3);}.cls-7{fill:url(#linear-gradient-4);}.cls-8{fill:url(#linear-gradient-5);}.cls-9{fill:url(#linear-gradient-6);}.cls-10{opacity:0.28;}.cls-11{mix-blend-mode:overlay;}.cls-12{fill:#fff;}</style><linearGradient id="linear-gradient" x1="243.45" y1="2591.14" x2="400.7" y2="2748.4" gradientTransform="translate(1121.97 -2059.37) rotate(1.45)" gradientUnits="userSpaceOnUse"><stop offset="0" stop-color="#f26522"/><stop offset="0.3" stop-color="#f16524"/><stop offset="0.47" stop-color="#ed642d"/><stop offset="0.6" stop-color="#e6633b"/><stop offset="0.72" stop-color="#dc614e"/><stop offset="0.83" stop-color="#cf5e68"/><stop offset="0.93" stop-color="#c05c87"/><stop offset="1" stop-color="#b259a2"/></linearGradient><linearGradient id="linear-gradient-2" x1="-20.67" y1="2866.21" x2="-14.59" y2="2084.86" gradientTransform="translate(1121.97 -2059.37) rotate(1.45)" gradientUnits="userSpaceOnUse"><stop offset="0" stop-color="#f26522"/><stop offset="0.18" stop-color="#f06326"/><stop offset="0.38" stop-color="#ec5c33"/><stop offset="0.57" stop-color="#e45049"/><stop offset="0.78" stop-color="#d84066"/><stop offset="0.98" stop-color="#ca2b8d"/><stop offset="1" stop-color="#c92990"/></linearGradient><linearGradient id="linear-gradient-3" x1="-162.27" y1="2715.29" x2="-43.52" y2="2834.04" xlink:href="#linear-gradient"/><linearGradient id="linear-gradient-4" x1="-458.43" y1="2659.49" x2="-346.63" y2="2771.29" xlink:href="#linear-gradient"/><linearGradient id="linear-gradient-5" x1="-533.1" y1="2712.02" x2="-527.91" y2="2712.02" gradientTransform="translate(1121.97 -2059.37) rotate(1.45)" gradientUnits="userSpaceOnUse"><stop offset="0" stop-color="#f26522"/><stop offset="1" stop-color="#b06861"/></linearGradient><linearGradient id="linear-gradient-6" x1="-911.32" y1="2543.03" x2="-881.72" y2="2543.03" xlink:href="#linear-gradient-5"/></defs><title>pinkfish</title><g class="cls-1"><g id="Layer_2" data-name="Layer 2"><g id="Art"><polygon class="cls-2" points="54.86 533.5 54.86 533.5 54.86 533.5 54.86 533.5"/><polygon class="cls-3" points="1491.23 574.81 1500.88 581.12 1469.93 577.82 1423.26 584.41 1463.35 600.43 1384.27 589.91 1350.05 594.74 1417.36 626.46 1321.63 598.75 1300.78 601.7 1371.72 645.56 1260.61 612.03 1253.34 614.53 1341.93 672.23 1230.01 622.55 1224.8 624.34 1315.97 703.08 1198.55 633.37 1302.36 727.09 1525.63 629.27 1532.16 578.72 1496.53 574.06 1491.23 574.81"/><path class="cls-4" d="M2135.76,427.34l-438.09,3c-18.69-6.12-69.38-37.38-109.47-64.41l1.75-33.65-14.26-15.84L1555,260.2l-85.45,24.33c-84.95-68.66-218.72-128.06-261-146l2.92-55.87-14.93-10.46,9-72.22L872.92,87.69l-13.23-1.12c-205.88,13.64-403,107.22-498,152.29-20.26,9.62-36.27,17.21-44.63,20.26-5.91,2.16-9.66,3.64-15.07,5.79-13.11,5.21-37.52,14.9-136.11,50.89l-1.34.53c-8.71,3.1-73.08,21.51-111.6,32.38l-.79.24C35.1,354.6,15.74,361,3.32,381.11a22.62,22.62,0,0,0-1.56,20.58c1,14.59,15.35,24.7,36.78,25.82,5.8.27,16.78,0,26-4.88,3.2.52,6.45,1,9.72,1.51,18.05,2.73,38.49,5.83,51.31,15.54l26,35.6a75.67,75.67,0,0,1-21.53,6.84l-46.12,7.33-25.63-12.6H54c-7.77,0-31.43,0-35.69,19.12s16.19,31.29,34.88,40.12l.56.23c67.38,27.16,194.71,56.49,262.37,71.12a215.3,215.3,0,0,1,15.65,21.67s26.14,3.55,9.23-16.37l9.68,2c9.06,13.87,13.46,22.46,13.46,22.46s25.8,4.39,13.93-16.6l17.29,3.8c8.42,13.37,12.55,21.44,12.55,21.44s26.45,4.49,20.38-14.19l80.53,17.72.22.16,64.85,55.83,2.49,2.14,3.09,1.1,67.53,24,8.1,2.88,7.25-4.61,55.81-35.49,53.5,11.77,16.87,3.73,15.27,11.62,75.78,57.69,3.45,2.63,4.19,1.12,97.07,25.94,12.39,3.31,9-9.15,78.66-80.13,27.08-27.59-37.55-9.19-43.67-10.69-3-.72-3,.1-21.92.76.37-.17c44.72-22.63,110.68-41.53,179.6-56.75L1196.52,632l-14.27,19.37,103.81,93.72,11.66,10.53,14.39-6.3,223.27-97.82L1548,646l1.76-13.64,6.52-50.51,71.84,9.39,247.44,304-6.78-293.71ZM147,446.38c18,18.52,29.07,21.1,29.07,21.1l-10.14,6.23ZM54.86,533.5h0Zm467,102.73,3.77,4.33-5.08-4.37Zm131.08,79.83-67.53-24-45.24-38.95,79.65,25.18L541.36,640l120,32.28L559.88,640l113.24,16.61S606.9,640.05,600,640l-15.66-1.66,121.21,4.19,62,.52ZM1025,697.86l43.67,10.69L990,788.68l-97.07-25.94-40-30.49,82.07,15.55L830.4,715.16l-3.81-2.9L985,736.51,839.49,708.73l152.82,8s-92.77-12.85-101.54-12.14l-41.28-.7Zm500.68-68.58-223.27,97.82-103.81-93.72L1316,703.07l-91.17-78.73,5.21-1.79,111.92,49.68-88.59-57.7,7.28-2.5,111.11,33.53-70.95-43.86,20.86-2.94,95.72,27.71L1350,594.74l34.22-4.83,79.09,10.52-40.09-16,46.66-6.59,31,3.3-9.65-6.3,5.3-.75,35.63,4.66Zm113.81-58.34L1483.08,550.5l-.35,0-.35,0c-3.47.35-348.15,35.45-489,106.45l-202.42,27-21,.73L744,679l33-21,50.25-32-59.55-.5L706,625l-185-.32-28.27-1L410.47,605.6c-33.62-37.68-80.21-65.51-80.21-65.51a621.29,621.29,0,0,1,47.55,58.33L365,595.61c-.26-.05-3.77-.76-9.87-2-25-24.17-53.15-41-53.15-41,11.88,12.91,21.9,25.15,30.26,36.16-8-1.71-17.15-3.69-27.25-5.92A289.53,289.53,0,0,0,278,566.89q7.21,6.63,13.39,12.91C221.27,564.08,118.42,539.08,62,516.33c-11.77-5.56-22.54-13-22.63-15.57,0,0,1.56-2.21,13.95-2.3l27.26,13.4,15-2.38-7,1.81,67.14-9,14.3-12.56c1-.64,2.1-1.18,3.1-1.87A267.32,267.32,0,0,0,201.53,466l4.54-4.1-6-1.15c-.27-.05-27.57-5.51-55.36-33.2-17.28-17.21-42.64-21.05-67.16-24.77-3.84-.58-7.65-1.16-11.37-1.78l-8.88-1.49-.88,2.36c-.64,1.75-6.75,4.58-16.75,4.07-5.47-.28-10.65-1.6-14.19-3.69-3.08-1.38-4.92-3.76-4.79-6.21a4.86,4.86,0,0,1,.59-2l.4-1,0-.63c7.7-12.47,19.75-17.2,37.12-22.95,18.45-5.21,110.7-31.3,114.48-33.41C272.17,300,296.77,290.26,310,285c5.21-2.07,8.82-3.5,14.5-5.58,9.34-3.41,25-10.85,46.68-21.13,93.54-44.4,288.18-136.79,489.43-150.16l223.75,23.4L944.23,87.46,1180.1,28.61l-1.83,14.75L1055,76.71l121.23-17.18,4.32-.61-4.45,1.69L1068,101.73l105.48-20.11,3.14-.6-3.17,1.49-62.81,29.55,77.27-19.44,1.25.88-3.09,59.16,2,.81c1.79.72,179.49,73,275.16,153.91l1.24,1,77.11-22,1.82,4.93-38.81,20.7,42.4-11,.93,2.53-50.18,36,55.83-20.65,3,8.23.43.49-8,14.61,12.47-9.56,6.39,7.28L1566,377l1.41,1c3.94,2.7,96.77,66.27,127,74l.38.1h0l367.55-2.53L1846.88,590l5.6,242.65Z"/><polygon points="1173.48 82.52 1176.65 81.03 1173.52 81.63 1173.41 82.47 1173.48 82.52"/><polygon points="1180.58 58.92 1176.26 59.53 1176.13 60.61 1180.58 58.92"/><path class="cls-4" d="M974.77,202.11c-1.65-1.05-.7-.42,1.45,1A12.35,12.35,0,0,0,974.77,202.11Z"/><path class="cls-5" d="M2062.28,449.47,1694.73,452h0l-.38-.1c-30.21-7.7-123-71.27-127-74l-1.41-1,1.92-36.86-6.39-7.28L1549,342.38l8-14.61-.43-.49-3-8.23-55.83,20.65,50.18-36-.93-2.53-42.4,11,38.81-20.7-1.82-4.93-77.11,22-1.24-1c-95.67-80.92-273.37-153.19-275.16-153.91l-2-.81,3.09-59.16-1.26-.88-77.27,19.44,62.81-29.55-.07-.05.1-.84L1068,101.73l108.08-41.12.13-1.08L1055,76.71l123.24-33.36,1.83-14.75L944.23,87.46l140.12,44.08L860.6,108.14C659.35,121.51,464.71,213.91,371.17,258.3c-21.68,10.29-37.34,17.73-46.68,21.13-5.69,2.08-9.3,3.51-14.5,5.58-13.22,5.25-37.82,15-136.67,51.1-3.78,2.11-96,28.21-114.48,33.41C41.47,375.27,29.42,380,21.72,392.47l0,.63-.4,1a4.86,4.86,0,0,0-.59,2c-.13,2.45,1.71,4.83,4.79,6.21,3.53,2.09,8.72,3.41,14.19,3.69,10,.51,16.1-2.33,16.75-4.07l.88-2.36L66.16,401c3.73.63,7.53,1.2,11.37,1.78,24.52,3.72,49.88,7.55,67.16,24.77,27.79,27.69,55.09,33.15,55.36,33.2l6,1.15-4.54,4.1A267.33,267.33,0,0,1,173,487.83c-1,.68-2.08,1.22-3.1,1.87l-14.3,12.57-67.14,9,7-1.81-15,2.38L53.3,498.46c-12.39.1-13.93,2.28-13.95,2.3.08,2.52,10.85,10,22.62,15.56,56.45,22.75,159.3,47.74,229.38,63.47q-6.2-6.26-13.39-12.91A289.52,289.52,0,0,1,305,582.84c10.1,2.23,19.27,4.22,27.25,5.92-8.36-11-18.38-23.24-30.26-36.16,0,0,28.13,16.81,53.15,41,6.1,1.26,9.61,2,9.87,2l12.78,2.81a621.22,621.22,0,0,0-47.55-58.33s46.59,27.83,80.21,65.51l82.22,18.09,28.27,1L706,625l61.8.52,59.55.5-50.25,32-33,21,25.88,5.69,21-.73,202.42-27c140.88-71,485.57-106.1,489-106.45l.35,0,.35,0,156.36,20.43,213,261.72L1846.88,590ZM178.54,413.39A23.79,23.79,0,1,1,195,418.82a13.2,13.2,0,1,0-16.44-5.43Zm9.89-8.92a2.91,2.91,0,0,0,3.76,1.69,2.85,2.85,0,0,0,1.41-1.22,4.12,4.12,0,1,1-5.16-.46Zm86.71,81.75c-18.71,24.8-49.77,11.3-49.77,11.3s11.71,1.69,21.95-15.88c1.88-3.23,1.15-7.57-1.55-9.61l-58.69-44.16,77.42,27.59C268.24,457.57,287.48,469.86,275.14,486.22Zm70.48,11.72c5.76-22.29,7.26-50.13,3.22-79.72-4.5-32.93-15-61.91-28.47-82.41,19.92,5.11,38.75,37,44.29,77.54C369.88,451.68,361.58,485.65,345.62,497.95ZM974.77,202.11a12.36,12.36,0,0,1,1.45,1C974.07,201.68,973.13,201.05,974.77,202.11ZM1751,569.43l-75.32-22.27c-21,9-49.16,9.83-77.42.48,46.94,3.29,87.52-15,99.73-48.95a62.5,62.5,0,0,0,3.11-28.63,70.4,70.4,0,0,1,5.59,12.46l154.71,68.83-152-45-.12.28a46.58,46.58,0,0,1-2.27,9.61c-.32.89-.77,1.71-1.14,2.57l88.14,35.8L1698,531.32a55.32,55.32,0,0,1-10.45,9.32Z"/><path class="cls-4" d="M1698,531.33l95.95,23.35-88.14-35.8c.37-.86.82-1.68,1.14-2.57a46.6,46.6,0,0,0,2.27-9.61l.12-.28,152,45-154.71-68.83a70.41,70.41,0,0,0-5.59-12.46,62.49,62.49,0,0,1-3.11,28.63c-12.21,33.94-52.8,52.24-99.73,48.95,28.25,9.34,56.42,8.5,77.42-.48L1751,569.43l-63.4-28.78A55.28,55.28,0,0,0,1698,531.33Z"/><path class="cls-4" d="M264.49,455.46l-77.42-27.59L245.77,472c2.7,2,3.43,6.37,1.55,9.61-10.23,17.57-21.95,15.88-21.95,15.88s31.06,13.5,49.77-11.3C287.48,469.86,268.24,457.57,264.49,455.46Z"/><path class="cls-6" d="M890.77,704.62c8.77-.7,101.54,12.14,101.54,12.14l-152.82-8L985,736.51,826.59,712.26l3.81,2.9,104.51,32.63-82.07-15.55,40,30.49L990,788.68l78.66-80.13L1025,697.86l-175.46,6.07Z"/><path class="cls-7" d="M767.61,643.11l-62-.52-121.21-4.19L600,640c6.87,0,73.09,16.6,73.09,16.6L559.88,640l101.44,32.27L541.36,640l78.4,38.22-79.65-25.18L585.36,692l67.53,24Z"/><polygon class="cls-8" points="521.82 636.23 520.51 636.18 525.59 640.56 521.82 636.23"/><path class="cls-4" d="M320.36,335.81c13.45,20.5,24,49.48,28.48,82.41,4,29.6,2.54,57.43-3.22,79.72,16-12.29,24.27-46.27,19-84.59C359.11,372.79,340.28,340.92,320.36,335.81Z"/><path class="cls-9" d="M176,467.48s-11.1-2.58-29.07-21.1l18.93,27.33Z"/><path class="cls-4" d="M190.18,393.56a13.15,13.15,0,0,1,4.8,25.26,23.83,23.83,0,1,0-16.44-5.43,13.12,13.12,0,0,1,11.64-19.83Z"/><path class="cls-4" d="M192.13,411.65a4.1,4.1,0,0,0,2.38-5.29,4.06,4.06,0,0,0-.92-1.42,2.85,2.85,0,0,1-1.41,1.22,2.91,2.91,0,0,1-3.76-1.69,4,4,0,0,0-1.59,4.8A4.1,4.1,0,0,0,192.13,411.65Z"/><g class="cls-10"><g class="cls-11"><circle class="cls-12" cx="456.97" cy="282.44" r="14.36" transform="translate(-57.02 126.2) rotate(-14.81)"/><circle class="cls-12" cx="503.91" cy="313.08" r="14.36" transform="translate(-63.29 139.21) rotate(-14.81)"/><circle class="cls-12" cx="555.52" cy="283.98" r="9.92" transform="translate(-54.13 151.44) rotate(-14.81)"/><circle class="cls-12" cx="507.09" cy="244.52" r="19.22" transform="translate(-45.66 137.75) rotate(-14.81)"/></g><g class="cls-11"><circle class="cls-12" cx="569.72" cy="235.04" r="14.36" transform="translate(-41.15 153.44) rotate(-14.81)"/><circle class="cls-12" cx="616.65" cy="265.68" r="14.36" transform="translate(-47.43 166.46) rotate(-14.81)"/><circle class="cls-12" cx="668.26" cy="236.58" r="9.92" transform="matrix(0.97, -0.26, 0.26, 0.97, -38.27, 178.68)"/><circle class="cls-12" cx="619.84" cy="197.12" r="19.22" transform="translate(-29.8 164.99) rotate(-14.81)"/></g><g class="cls-11"><circle class="cls-12" cx="672.86" cy="274.51" r="14.36" transform="matrix(0.97, -0.26, 0.26, 0.97, -47.82, 181.12)"/><circle class="cls-12" cx="719.79" cy="305.15" r="14.36" transform="matrix(0.97, -0.26, 0.26, 0.97, -54.09, 194.13)"/><circle class="cls-12" cx="771.4" cy="276.04" r="9.92" transform="matrix(0.97, -0.26, 0.26, 0.97, -44.93, 206.36)"/><circle class="cls-12" cx="722.98" cy="236.59" r="19.22" transform="translate(-36.46 192.67) rotate(-14.81)"/></g><g class="cls-11"><circle class="cls-12" cx="728.48" cy="186.39" r="14.36" transform="translate(-23.44 192.41) rotate(-14.81)"/><circle class="cls-12" cx="775.42" cy="217.03" r="14.36" transform="translate(-29.72 205.42) rotate(-14.81)"/><circle class="cls-12" cx="827.03" cy="187.92" r="9.92" transform="translate(-20.56 217.65) rotate(-14.81)"/><circle class="cls-12" cx="778.6" cy="148.46" r="19.22" transform="translate(-12.08 203.96) rotate(-14.81)"/></g><g class="cls-11"><circle class="cls-12" cx="825.06" cy="248.45" r="14.36" transform="translate(-36.1 219.16) rotate(-14.81)"/><circle class="cls-12" cx="872" cy="279.09" r="14.36" transform="translate(-42.37 232.18) rotate(-14.81)"/><circle class="cls-12" cx="923.61" cy="249.98" r="9.92" transform="translate(-33.22 244.4) rotate(-14.81)"/><circle class="cls-12" cx="875.19" cy="210.52" r="19.22" transform="matrix(0.97, -0.26, 0.26, 0.97, -24.74, 230.71)"/></g><g class="cls-11"><circle class="cls-12" cx="928.51" cy="199.57" r="14.36" transform="matrix(0.97, -0.26, 0.26, 0.97, -20.17, 243.98)"/><circle class="cls-12" cx="975.45" cy="230.21" r="14.36" transform="matrix(0.97, -0.26, 0.26, 0.97, -26.44, 257)"/><circle class="cls-12" cx="1027.06" cy="201.1" r="9.92" transform="translate(-17.28 269.22) rotate(-14.81)"/><circle class="cls-12" cx="978.63" cy="161.65" r="19.22" transform="translate(-8.81 255.53) rotate(-14.81)"/></g><g class="cls-11"><circle class="cls-12" cx="979.73" cy="280.97" r="14.36" transform="translate(-39.27 259.78) rotate(-14.81)"/><circle class="cls-12" cx="1026.67" cy="311.61" r="14.36" transform="translate(-45.54 272.79) rotate(-14.81)"/><circle class="cls-12" cx="1078.28" cy="282.5" r="9.92" transform="translate(-36.39 285.02) rotate(-14.81)"/><circle class="cls-12" cx="1029.86" cy="243.04" r="19.22" transform="translate(-27.91 271.33) rotate(-14.81)"/></g><g class="cls-11"><circle class="cls-12" cx="1090.92" cy="222.46" r="14.36" transform="translate(-20.62 286.25) rotate(-14.81)"/><circle class="cls-12" cx="1137.85" cy="253.1" r="14.36" transform="translate(-26.89 299.27) rotate(-14.81)"/><circle class="cls-12" cx="1189.47" cy="223.99" r="9.92" transform="translate(-17.74 311.5) rotate(-14.81)"/><circle class="cls-12" cx="1141.04" cy="184.53" r="19.22" transform="translate(-9.26 297.81) rotate(-14.81)"/></g><g class="cls-11"><circle class="cls-12" cx="1169.22" cy="300.66" r="14.36" transform="translate(-38.01 308.87) rotate(-14.81)"/><circle class="cls-12" cx="1216.16" cy="331.3" r="14.36" transform="translate(-44.28 321.89) rotate(-14.81)"/><circle class="cls-12" cx="1267.77" cy="302.19" r="9.92" transform="translate(-35.13 334.11) rotate(-14.81)"/><circle class="cls-12" cx="1219.34" cy="262.73" r="19.22" transform="matrix(0.97, -0.26, 0.26, 0.97, -26.65, 320.42)"/></g><g class="cls-11"><circle class="cls-12" cx="1306.1" cy="320.84" r="14.36" transform="translate(-38.62 344.53) rotate(-14.81)"/><circle class="cls-12" cx="1353.03" cy="351.48" r="14.36" transform="translate(-44.89 357.54) rotate(-14.81)"/><circle class="cls-12" cx="1404.65" cy="322.37" r="9.92" transform="translate(-35.74 369.77) rotate(-14.81)"/><circle class="cls-12" cx="1356.22" cy="282.92" r="19.22" transform="translate(-27.26 356.08) rotate(-14.81)"/></g><g class="cls-11"><circle class="cls-12" cx="1402.09" cy="380.65" r="14.36" transform="translate(-50.72 371.05) rotate(-14.81)"/><circle class="cls-12" cx="1449.02" cy="411.29" r="14.36" transform="matrix(0.97, -0.26, 0.26, 0.97, -56.99, 384.07)"/><circle class="cls-12" cx="1500.64" cy="382.18" r="9.92" transform="translate(-47.84 396.3) rotate(-14.81)"/><circle class="cls-12" cx="1452.21" cy="342.72" r="19.22" transform="translate(-39.36 382.6) rotate(-14.81)"/></g></g><path class="cls-4" d="M1032.32,238.34c2.37,1.57,14.18,1.94,19.55-.38,5.16-2.23,8.86-6.05,12.33-10.63,2.42-3.18,7.71-9.39,6.28-14.12-2-6.52-10.26-9.92-15.52-13.27-5.1-3.25-19.27-11.71-24.86-1.34a44.37,44.37,0,0,0-5.29,21.28C1024.89,226.24,1026.91,234.75,1032.32,238.34Z"/><path class="cls-4" d="M685.17,475.49a2.34,2.34,0,0,1,2.16,2.42l.39,4.24c.1,1.62-.64,2.53-2.08,2.37a57.94,57.94,0,0,0-11.21-.3c-5.82.66-7.7,3.28-7,9.29,1.05,9,1.58,13.5,2.64,22.5.71,6,3.13,8.21,8.58,7.59a39,39,0,0,0,6.47-1.5c-.68-6-1-8.94-1.69-14.89l-5,.56c-1.33.15-2.17-.61-2.35-2.13l-.51-4.4c-.18-1.52.47-2.45,1.81-2.6l11.88-1.31c1.34-.15,2.17.62,2.34,2.14,1.13,10.29,1.7,15.44,2.84,25.73.19,1.69-.15,2.67-1.78,3.36a44,44,0,0,1-13.21,4.21c-11.82,1.33-16.73-4.07-18.15-15.82-1.07-8.83-1.6-13.24-2.66-22.07-1.46-12.17,2.53-18.24,14.49-19.59A67,67,0,0,1,685.17,475.49Z"/><path class="cls-4" d="M735.38,469.88a2.09,2.09,0,0,1,2.39,2.17c1.32,14.11,2,21.16,3.31,35.26,1.13,12-3.42,19.37-14.51,20.46-10.87,1.06-16.87-5.06-18.14-17.17-1.48-14.13-2.22-21.19-3.69-35.32-.16-1.53.5-2.45,1.85-2.59l4.71-.48c1.34-.14,2.18.63,2.33,2.16,1.46,14.43,2.2,21.65,3.67,36.09.6,5.84,3.64,8.62,8.35,8.16s7.22-3.78,6.65-9.63c-1.4-14.44-2.1-21.66-3.5-36.1-.15-1.53.52-2.44,1.87-2.57Z"/><path class="cls-4" d="M760.14,467.66c1.34-.11,2.17.67,2.3,2.2,1.74,20.33,2.62,30.49,4.38,50.81.13,1.52-.53,2.44-1.85,2.55l-4.63.4c-1.32.12-2.13-.67-2.27-2.19-1.82-20.32-2.73-30.48-4.53-50.8-.13-1.53.54-2.44,1.88-2.56Z"/><path class="cls-4" d="M813,485.24c.37,5.3.56,7.95.93,13.25,1,13.76-4.62,22.23-17.78,23.23-3.9.3-7.73.43-11.5.47-1.33,0-2.06-.78-2.19-2.3-1.7-20.78-2.54-31.16-4.22-51.94-.12-1.53.35-2.35,1.53-2.51,3.39-.47,7.91-1,12.62-1.32C804.73,463.18,812,470.89,813,485.24Zm-25.35-11.62c1.22,15.65,1.83,23.48,3.07,39.13a42.21,42.21,0,0,0,5.11-.05c6.34-.48,9.94-4.92,9.34-13.07-.42-5.71-.63-8.56-1-14.27-.65-8.92-4.84-12.8-11.33-12.31A51.06,51.06,0,0,0,787.63,473.62Z"/><path class="cls-4" d="M851.73,461.11c1.42-.08,2.22.72,2.3,2.26l.26,4.51c.09,1.62-.61,2.51-2,2.59-6.48.37-9.72.56-16.19,1l.84,13.43c5.86-.37,8.78-.54,14.64-.88,1.41-.08,2.2.73,2.29,2.26l.25,4.42c.09,1.53-.6,2.51-2,2.59-5.84.34-8.76.51-14.6.88.36,5.71.54,8.57.9,14.28,6.4-.4,9.6-.59,16-1,1.4-.08,2.19.73,2.28,2.35l.26,4.51c.09,1.53-.6,2.42-2,2.5-9.06.52-13.59.79-22.65,1.38-1.32.09-2.11-.72-2.22-2.25-1.35-20.36-2-30.54-3.35-50.89-.1-1.53.59-2.43,1.94-2.51C837.9,461.92,842.51,461.64,851.73,461.11Z"/><path class="cls-4" d="M910,458.48a2.33,2.33,0,0,1,2,2.56c.07,1.77.1,2.66.17,4.43s-.89,2.49-2.31,2.22a43.43,43.43,0,0,0-9-.83c-4.71.2-6.33,2.4-6.16,6.23l.08,1.79c.14,3.06,1,4.22,4.94,5.5l6.64,2.19c7.09,2.35,9.84,6.26,10.17,14.86l.06,1.61c.39,10.21-4,16-15.73,16.48a40.41,40.41,0,0,1-10.22-1.17,2.38,2.38,0,0,1-2-2.55c-.06-1.84-.09-2.76-.14-4.59s.69-2.59,2.19-2.23a35.69,35.69,0,0,0,9.59,1.2c5.75-.25,7.65-2.54,7.49-6.45,0-.89-.05-1.33-.09-2.21-.12-3-1.14-4.47-4.08-5.46l-7.31-2.42c-7.39-2.4-10-5.94-10.43-14.7,0-.34,0-.51,0-.85-.47-10.12,3.83-16,14.54-16.42A47.82,47.82,0,0,1,910,458.48Z"/><path class="cls-4" d="M953.8,456.9c1.42,0,2.19.8,2.23,2.33,0,1.8.07,2.71.11,4.51,0,1.62-.68,2.48-2.1,2.52-6.48.16-9.72.25-16.21.45.17,5.38.25,8.07.41,13.45,5.86-.18,8.79-.26,14.65-.41,1.41,0,2.18.8,2.22,2.33,0,1.77.07,2.66.11,4.43,0,1.53-.68,2.49-2.09,2.52-5.85.15-8.77.23-14.61.41.18,5.72.26,8.58.44,14.3,6.41-.2,9.61-.29,16-.45,1.4,0,2.16.8,2.2,2.42,0,1.8.07,2.71.11,4.51,0,1.53-.67,2.4-2.07,2.44-9.07.23-13.6.36-22.67.66-1.32,0-2.09-.78-2.14-2.31-.69-20.39-1-30.58-1.71-51-.05-1.53.67-2.41,2-2.45C940,457.26,944.57,457.13,953.8,456.9Z"/><path class="cls-4" d="M1002.73,470.67c0,.82,0,1.23,0,2,.06,6-2.71,11.35-8.1,14.06,4.36,8.83,6.53,13.25,10.82,22.1.83,1.69.25,2.89-1.37,2.91l-5.23.06a2.57,2.57,0,0,1-2.52-1.67c-4-8.26-6-12.39-10-20.64a34,34,0,0,1-5.78,0c.14,8.07.21,12.11.35,20.18,0,1.53-.7,2.4-2,2.42l-4.64.09c-1.32,0-2.08-.81-2.11-2.34-.41-20.47-.62-30.7-1-51.16,0-2,.78-2.83,2.42-2.94,4-.26,8.31-.49,11.24-.54C997.32,455,1002.63,461.13,1002.73,470.67Zm-22.56-6.24c.11,6.5.17,9.75.28,16.26a38.83,38.83,0,0,0,4.84.26c6.17-.1,8.58-3.19,8.52-8.21,0-.55,0-.82,0-1.36-.06-4.85-2.56-7.3-8.77-7.2C983.82,464.19,981.66,464.31,980.16,464.42Z"/><path class="cls-4" d="M1050.1,455.89c1.58,0,2.24,1,1.79,2.73-5.35,20.37-8,30.56-13.17,51a2.2,2.2,0,0,1-2.29,2h-6.92a2.22,2.22,0,0,1-2.36-2c-5.12-20.39-7.72-30.58-13-50.94-.39-1.7.28-2.72,1.78-2.73l5.1,0a2.3,2.3,0,0,1,2.41,2.12c3.88,17.83,5.78,26.75,9.54,44.59,3.83-17.85,5.77-26.77,9.71-44.61.3-1.45,1.05-2.13,2.33-2.12Z"/><path class="cls-4" d="M1071.7,456.06c1.35,0,2.09.87,2.07,2.41-.24,20.4-.37,30.6-.62,51,0,1.53-.77,2.37-2.09,2.36l-4.64,0c-1.32,0-2.05-.87-2-2.4.19-20.4.29-30.6.48-51,0-1.53.77-2.38,2.12-2.36Z"/><path class="cls-4" d="M1115.41,457.11a2.34,2.34,0,0,1,1.81,2.69c0,1.7-.07,2.55-.11,4.26s-1,2.53-2.37,2.15a35,35,0,0,0-8.05-1.38c-6.51-.15-8.65,2.12-8.78,9-.16,8.38-.25,12.56-.42,20.94-.14,6.81,2,9.15,8.31,9.29a35,35,0,0,0,8-1c1.41-.3,2.21.48,2.24,2.19s0,2.71,0,4.51a2.45,2.45,0,0,1-2,2.59,46.21,46.21,0,0,1-9.39,1.06c-12.08-.27-16.18-6.28-16-18.11.15-8.89.23-13.33.38-22.22.21-12,4.73-17.74,16.88-17.47A39.34,39.34,0,0,1,1115.41,457.11Z"/><path class="cls-4" d="M1157.21,458.16c1.43.05,2.14.93,2.08,2.47-.07,1.8-.11,2.71-.17,4.51-.06,1.62-.84,2.44-2.26,2.38-6.49-.25-9.74-.36-16.24-.57-.18,5.38-.27,8.07-.45,13.45,5.87.19,8.81.3,14.68.51,1.42.05,2.13.93,2.07,2.46-.07,1.77-.1,2.66-.17,4.43-.06,1.53-.84,2.44-2.25,2.38-5.85-.22-8.78-.32-14.63-.51-.19,5.72-.29,8.58-.48,14.3,6.42.21,9.63.32,16,.57,1.41.05,2.11.93,2,2.55-.07,1.8-.11,2.71-.18,4.51-.06,1.53-.83,2.35-2.23,2.3-9.08-.35-13.63-.5-22.71-.78-1.33,0-2-.92-2-2.45.63-20.39.94-30.59,1.56-51,0-1.53.82-2.36,2.17-2.32C1143.34,457.65,1148,457.81,1157.21,458.16Z"/><path class="cls-4" d="M624.07,359.41c7,9.37,19.49,13.81,32.2,15.18,18.29,2,37.1-1.27,54-8,10-4,25.16-12.71,25.69-25.56C736.58,325.19,724,225,724,225c-.17-6.38-5.87-11.38-12.53-11L687,215.41a11.23,11.23,0,0,0-10.81,12.47L688,317.19c1.07,8.17-4.94,15.58-13.48,16.59a15.8,15.8,0,0,1-17.27-11.36l-22.72-87.21a11.86,11.86,0,0,0-13.94-8.33L602,230.72a11.08,11.08,0,0,0-8.76,13.71S616.11,348.71,624.07,359.41Z"/><path class="cls-4" d="M753.11,302.47c.83,9.79,4.51,25.11,10.69,33.38,17,22.71,54.36,19.91,78,11,10.8-4.06,21.61-10.13,20.76-23.09l-1-15.68c-.43-6.72-7.18-11.88-14.82-11.32l-13,1c-5.94.44-10.81,4.19-12.06,9.28l-.41,1.68c-1.16,4.75-7,7.34-12.11,5.42l-1.42-.53a9.93,9.93,0,0,1-6.78-8.44l-3.58-58.65a9.18,9.18,0,0,1,5.83-8.85l1.89-.83c4.46-2,10-.28,12.18,3.72l4.11,4.23a23.19,23.19,0,0,0,17.49,6.7l.78,0c10.6-.43,19-7.8,19.4-17.09l.09-1.93c-1.78-12.21-11.17-22.67-24.35-27.09l-1-.33c-22.17-7.44-54-1.89-70.82,12.32-10.09,8.54-15.3,20.61-14.25,33Z"/><path class="cls-4" d="M894.44,351.75l20-1.1a11.72,11.72,0,0,0,11.08-11.82l-.39-41.17,29.67,51.76a11.72,11.72,0,0,0,11.35,6l29.44-2.74a11.72,11.72,0,0,0,8.92-17.78l-36.1-59.14,35.19-46a11.72,11.72,0,0,0,2.28-14.07s-14.69-9-20.54-12.64c.46.52-9.9-4.44-14.73-.92L924.83,265l-.5-53.58a11.72,11.72,0,0,0-11.73-11.61l-20.59,0a11.72,11.72,0,0,0-11.71,11.61l1.78,128.48A11.72,11.72,0,0,0,894.44,351.75Z"/><path class="cls-4" d="M1097.79,300.56c4.1,1.47,8.53,2.21,12.22,4.5s6.52,6.83,5,10.91c-1,2.75-3.69,4.53-6.35,5.79a36.1,36.1,0,0,1-18.54,3.31c-6.15-.55-12-2.67-18.18-3.33s-13,.51-17,5.25c-5.47,6.55-2.52,17.13,4,22.52s15.49,6.84,24,7.7c16,1.61,32.43,1.75,47.66-3.36s29.12-16.22,34.21-31.36-.73-34-15.07-41.11c-7-3.44-15.12-3.92-22.32-6.89s-13.87-10.2-11.83-17.71c2.48-9.13,13.62-12.87,20.31-8.36,3.74,2.52,6.78,9.86,9.35,13.6l6.16,1.52c14.91.3,23.73-5.46,23-22.54-.55-12.41-9.5-23.48-20.85-28.63s-24.64-5-36.71-1.64c-19.7,5.45-37.54,20.23-42.85,39.84S1078.61,293.71,1097.79,300.56Z"/><path class="cls-4" d="M1643,504.45c-356.76-163.55-815.5-129.52-1033.76-100A445.88,445.88,0,0,0,582,299.76L561.33,247.4a11.72,11.72,0,0,0-14.47-6.86l-24.76,7.91a11.72,11.72,0,0,0-7.19,15.83l.82,1.9A480.44,480.44,0,0,1,552.29,403.4l.63,5.63c.13,1.2.21,2.4.32,3.59-22.68,3.59-40.49,6.76-52.45,9a322.27,322.27,0,0,0-32.65-105.41l-15.57-30.46a11.72,11.72,0,0,0-15.58-5.2l-22.46,11a11.72,11.72,0,0,0-5.64,15.14l19.82,46.42a247.3,247.3,0,0,1,18.73,120.66l-5.08,53.07a11.72,11.72,0,0,0,8.89,12.51l30.84,7.52a11.72,11.72,0,0,0,14.4-9.85l4.21-31.8a322.25,322.25,0,0,0,2.73-37.94q25.52-5.13,50.7-9.68a279.63,279.63,0,0,1-7.49,49.26L531.75,567.6A11.72,11.72,0,0,0,543,582.11l37.55.33a11.72,11.72,0,0,0,11.06-7.54l.2-.54a324.71,324.71,0,0,0,21.06-126.68C1212,354,1643,504.45,1643,504.45Z"/></g></g></g></svg>