<svg xmlns="http://www.w3.org/2000/svg" viewBox="0 0 33.01 76.49"><defs><style>.cls-1{fill:#0c3251;}</style></defs><title>Pricing</title><g id="Layer_2" data-name="Layer 2"><g id="Art"><path class="cls-1" d="M1,50.78H7.94c0,6.57,3.69,10.84,8.93,10.84,3.4,0,6-1.53,7.43-5.45C26,51.47,26.88,45.7,14.89,41.5,7.28,38.83,3.67,33.4,2.66,25.85,1.88,20.05,5.19,13.47,10.29,11a13.5,13.5,0,0,1,3.59-1.26V1l5.5,0,.3,8.77c9.59,1.84,11.41,10.52,11.49,18.74l-7.37-.08c0-2.63-.08-6.7-1-8.7-1.5-3.13-3.19-4.29-6-4.29a7.64,7.64,0,0,0-7.22,7.92C9.47,28.9,11.9,33,18,35.67c3.12,1.34,6.44,2.78,8.89,5,8.36,7.69,5.46,20-1.7,25A18.5,18.5,0,0,1,19,68.16l0,7.33H13.82v-7.4A12.93,12.93,0,0,1,4,62.15,20.18,20.18,0,0,1,1,50.78Z"/><path class="cls-1" d="M20.09,76.49H12.82V69a13.87,13.87,0,0,1-9.7-6.3A21.31,21.31,0,0,1,0,50.78v-1H8.94v1c0,5.88,3.19,9.84,7.93,9.84,3.23,0,5.29-1.52,6.49-4.8.79-2.15,1.45-4.68.34-7s-4.25-4.63-9.15-6.34C7,39.79,2.79,34.41,1.67,26c-.84-6.3,2.76-13.26,8.19-15.85a18.43,18.43,0,0,1,3-1.16V0l7.47,0,.31,9C30.81,11.4,32.09,21.25,32.16,28.53v1l-9.38-.11v-1c0-1.56,0-6.29-.95-8.27-1.32-2.75-2.66-3.73-5.15-3.73a6.62,6.62,0,0,0-6.22,6.92c0,5.42,2.53,9,8,11.38,3.25,1.4,6.6,2.84,9.17,5.21A16.4,16.4,0,0,1,33,53.35a17.8,17.8,0,0,1-7.18,13.21A18.23,18.23,0,0,1,20,69Zm-5.27-2h3.25l0-7.16.82-.15a17.59,17.59,0,0,0,5.79-2.26A15.77,15.77,0,0,0,31,53.22a14.44,14.44,0,0,0-4.74-11.78c-2.32-2.13-5.52-3.51-8.61-4.84-6.16-2.66-9.16-7-9.16-13.21a8.61,8.61,0,0,1,8.22-8.92c3.29,0,5.3,1.41,7,4.86.91,1.9,1.11,5.22,1.14,8.15l5.36.06c-.3-10.21-3.61-15.4-10.66-16.75l-.78-.15L18.41,2H14.88v8.64l-.87.11a13.1,13.1,0,0,0-3.29,1.18c-4.62,2.2-7.79,8.39-7.07,13.78,1,7.71,4.71,12.42,11.57,14.83,5.49,1.93,8.86,4.34,10.29,7.38s.67,6-.27,8.57c-1.49,4.05-4.3,6.11-8.37,6.11-5.66,0-9.55-4.31-9.91-10.84H2a18.66,18.66,0,0,0,2.83,9.86,11.91,11.91,0,0,0,9.07,5.45l.91.08Z"/></g></g></svg>