<svg xmlns="http://www.w3.org/2000/svg" viewBox="0 0 436.24 196.33"><defs><style>.cls-1{fill:#0c3251;}</style></defs><title>Seasons</title><g id="Layer_2" data-name="Layer 2"><g id="Art"><path class="cls-1" d="M24.79,68.68l4.61,7.79a15.55,15.55,0,0,1-4.54,1L15.29,78,10.3,75l-.89-.08c-1.59-.15-6.43-.61-7.68,3.21S4.43,84.81,8.08,87l.11.06c13.25,6.88,38.72,15.39,52.27,19.71a44.26,44.26,0,0,1,2.78,4.74s5.28,1.24,2.21-3.17l1.94.6c1.58,3,2.31,4.86,2.31,4.86s5.19,1.41,3.18-3.12l3.46,1.12c1.46,2.9,2.15,4.63,2.15,4.63s5.32,1.44,4.45-2.5l16.12,5.21,0,0,12.17,12.7.47.49.61.29,13.34,6.25,1.6.75,1.57-.8L141,132.67l10.71,3.46,3.38,1.09L158,139.9l14.37,13.29.65.61.84.31,19.35,7.22,2.47.92,2-1.7,17.67-14.84,6.08-5.11L213.9,138l-8.72-3-.59-.21-.62,0-4.5-.28.08,0c9.59-3.75,23.46-6.32,37.86-8.07l2.68,2.8-3.3,3.68L256.17,154l2.18,2.38,3.07-1L309,139.78l2.69-.88.63-2.76,2.33-10.2,14.51,3.33,44.63,67.06,4.39-60.22,58-30.38-89.68-8c-3.7-1.62-13.46-9-21.13-15.33l1-6.85L323.85,72l-3.13-11.91-18,3.29c-16-15.72-42.22-30.5-50.53-35L253.94,17l-2.85-2.43L254.34,0,184.6,11.39l-2.69-.49C139.53,9.64,97.35,24.9,77,32.25c-4.33,1.57-7.76,2.81-9.53,3.27-1.25.32-2,.56-3.2.89-2.79.81-8,2.31-28.84,7.73l-.28.08c-1.84.46-15.37,3-23.47,4.43l-.17,0C8,49.5,3.87,50.43.93,54.3a4.65,4.65,0,0,0-.72,4.18c-.08,3,2.65,5.36,7,6A10.76,10.76,0,0,0,12.64,64l2,.5C18.24,65.41,22.36,66.45,24.79,68.68Zm-11-9,1.92.49c1.45.36,2.92.74,4.34,1.17-1.43-.44-2.89-.81-4.34-1.17Zm-2.42,0,0-.07.23-.46h0l-.23.46ZM5.62,59.4a7.5,7.5,0,0,0,2.26.69,8.29,8.29,0,0,0,1.68.09l.51-.05-.51.05a8.29,8.29,0,0,1-1.68-.09A7.49,7.49,0,0,1,5.62,59.4Zm-1-.64.19.15Zm-.46-1.08a.89.89,0,0,1,.09-.25.89.89,0,0,0-.09.25,1.23,1.23,0,0,0,.45,1.07A1.23,1.23,0,0,1,4.19,57.69Zm3-3A7.88,7.88,0,0,0,4.47,57l0,.13,0,.09,0-.09,0-.13A7.88,7.88,0,0,1,7.18,54.72Zm156.28,65.77-11-1.15-12-1.25,12,1.25Zm130.64-2.33c-2.7.06-6.19.15-10.27.3C287.9,118.3,291.4,118.21,294.1,118.15ZM203.46,37l-.28-.23-.16-.12.16.12.28.23Zm42.71-20.79h0Zm-21.93,1.87,22.92-6.28,0-.17,0,.17-22.92,6.28Zm22.4-6.48.56,0h0Zm-24.57,1.1,25.87-4.4h0l-25.87,4.4Zm10.69,8.33h0l11.12-4Zm15.69,2.7-1.06,7.09h0Zm5.43,10.64.73.41Zm5.8,3.34.73.43Zm4.43,81.72-2.86.2Zm17.3-.91-5,.22Zm-16.13.84,4.66-.28Zm8.38-.48L271,119Zm.09,0,2.59-.13Zm10-.44-2.3.09Zm-34.87,2.2,1.75-.16ZM73.85,64.19q.06.39.11.78Q73.91,64.58,73.85,64.19Zm-5.2,20.74a6.81,6.81,0,0,0,1.26-1,6.81,6.81,0,0,1-1.26,1Zm2.23-16.25a49.81,49.81,0,0,0-.79-7.13,49.78,49.78,0,0,1,.79,7.13,45.64,45.64,0,0,1-1.46,13.82A45.63,45.63,0,0,0,70.88,68.69Zm-4.2-17.42c3.23,1.17,6,5.94,7.05,12.19-1.09-6.26-3.83-11-7.05-12.19ZM68.79,99c-1.24-1.84-2.6-3.76-4.11-5.75h0C66.19,95.24,67.55,97.17,68.79,99Zm-3.59,1.92-.45-.43Zm-5.74-4.6-.8-1.07h0Zm-.13-.55.08.07ZM49.14,78.45a1.63,1.63,0,0,1-.27,1.22,10.26,10.26,0,0,1-.68.85,10.26,10.26,0,0,0,.68-.85A1.63,1.63,0,0,0,49.14,78.45Zm-3.59,3.9.35-.13Zm9-1.24,0,0h0Zm.67-1-.14.25Zm-1.33-4.7-.29-.27.29.27.15.15Zm-7.38,6.5-.39.2.39-.2a5.82,5.82,0,0,0,.62-.4A5.82,5.82,0,0,1,46.47,81.94Zm6.42-7.29h0l.39.3ZM39.4,65.78A2.73,2.73,0,0,0,40.65,65a2.73,2.73,0,0,1-1.25.83Zm.15-2.56,0-.07,0,.07s0,0,0,.06S39.55,63.24,39.55,63.22Zm-.16-.31h0l.07.11Zm4.06-5a4.87,4.87,0,0,1-2.24,7.61,4.87,4.87,0,0,0,2.24-7.61Zm-5.16,4.85a.83.83,0,0,0-.37.92.84.84,0,0,0,.11.23.81.81,0,0,1,.27-1.15Zm0,0h0a.6.6,0,0,0,.28.36A.6.6,0,0,1,38.34,62.72Zm.39.41a.6.6,0,0,0,.35,0,.52.52,0,0,0,.14-.07.52.52,0,0,1-.14.07A.6.6,0,0,1,38.72,63.13Zm-.59-6.87.2-.06Zm17,42.57c-.62-.44-1.11-.76-1.39-.94C54,98.06,54.49,98.38,55.11,98.82ZM45.43,83.06l-.34-.12Zm-.49-.57-.25,0,.25,0,.29-.05Zm-.72.08-.14-.07ZM41.16,70.74,37.6,67.48h0Zm-4-9.84a2.7,2.7,0,0,0-1.29,2,2.61,2.61,0,0,0,0,.59,2.62,2.62,0,0,1,0-.59A2.7,2.7,0,0,1,37.19,60.89Zm-1,3.46h0a2.86,2.86,0,0,1-.11-.27A2.86,2.86,0,0,0,36.14,64.35ZM63.92,99.71l0,0ZM248.6,5.35l-.2.91.2-.91-49.41,7.4L227,24.53h0l-27.8-11.78Zm19.2,37.31c-1.86-1.16-3.66-2.26-5.36-3.28C264.14,40.4,265.94,41.5,267.8,42.66Zm10.78,7.07-2.2-1.5-2.19-1.46L272,45.35,269.89,44,272,45.35l2.17,1.42,2.19,1.46ZM281.89,52l-2.21-1.55Zm3.29,2.39L283,52.84Zm9.42,7.5c-1.32-1.14-2.68-2.27-4.07-3.38C291.92,59.67,293.28,60.8,294.59,61.94Zm22.88,3.28h0l-16.21,3h0Zm14,54.84a27,27,0,0,1-3.22.12A27,27,0,0,0,331.52,120.06ZM320.67,84.21l.27.23-.27-.23.64-4.28Zm25.8,21.7h0a14.47,14.47,0,0,1,.9,2.66L359,115.12l-11.58-6.55A14.47,14.47,0,0,0,346.48,105.92Zm.77,8.29c-.09.29-.19.59-.3.87C347.06,114.79,347.16,114.5,347.25,114.21Zm-2.61,4.18a11,11,0,0,1-1.09.91,11,11,0,0,0,1.09-.91Zm10.08,8.84h0l-12.4-7.14.63-.38-.63.38Zm-30.82-7.46.88.37-.88-.37ZM333.3,122a25,25,0,0,1-6.57-1.18A25,25,0,0,0,333.3,122Zm-.7-2.06q.95-.13,1.85-.34Q333.54,119.79,332.6,119.93Zm2.59-.52a20.1,20.1,0,0,0,2-.62A20.1,20.1,0,0,1,335.18,119.41Zm9-17.89h0Zm33.47,24.18-13.9-5.61,13.9,5.61Zm-13.86-.65h0L346.49,116l.15-.25-.15.25ZM317.89,76.8,319.15,75l-1.26,1.85Zm-8.49-7.07,4.56-1.9-4.56,1.9Zm6.56.57-8.5,4.94h0Zm3.33,1.82.34,1.31-.34-1.31Zm1.34,3,.08.11-.08-.11Zm21.57,25.32.27.16Zm-.9-.55.26.16Zm4.24,2.23h0Zm24.78,81h0l3.63-49.75,46.83-24.51h0l-46.83,24.51Zm-70-65-.07,0h-.07c-.12,0-2.32,0-6,.09,3.72-.08,5.92-.09,6-.09h.07l.07,0L313,121ZM152,131.5l4,.25,27.48-1-27.48,1Zm-5.46-1.69h0l3.92,1.27ZM79.8,108.23l16.46,5.32,5.27.69-5.27-.69Zm-6.23-7.18q.63.64,1.27,1.31t1.28,1.38c1.06,1.18,2.11,2.42,3.09,3.71-1-1.29-2-2.53-3.09-3.71q-.64-.71-1.28-1.38T73.58,101.05Zm-4.42,3.77,1.55.47,2.56.83h0l-2.56-.83Zm-5-1.57h0c-.62-1-1.3-2.06-2-3.16C62.84,101.19,63.52,102.25,64.14,103.25Zm-5.46-1.75h0l4.92,1.58ZM6,79.48h0c0,.52,2,2.26,4.32,3.63,11.1,5.77,31.65,12.9,45.67,17.5q-.57-.7-1.19-1.43t-1.29-1.48l.09.05-.09-.05q.67.75,1.29,1.48t1.19,1.43c-14-4.6-34.57-11.73-45.67-17.5C8,81.74,5.91,80,5.95,79.48ZM35.6,78.3c-.65.38-1.33.77-2.05,1.16h0C34.26,79.08,34.94,78.69,35.6,78.3Zm-2.07,1.17-.48.23Zm-25.9-.25h0Zm-.58,0-.47,0Zm10.2,3.14-1.48.23h0l1.48-.23Zm12.44-.3,2.66-1.92L29.7,82.08l-.53,0ZM26.33,64.21a12.86,12.86,0,0,1,2.61,2.37A26.49,26.49,0,0,0,38.41,74a11.4,11.4,0,0,0,1.2.47l1.21.35-1,.75c-.91.68-2,1.38-3.12,2.09,1.16-.72,2.21-1.42,3.12-2.09l1-.75-1.21-.35a11.4,11.4,0,0,1-1.2-.47,26.49,26.49,0,0,1-9.47-7.41A12.86,12.86,0,0,0,26.33,64.21Zm-.89-.57a18.33,18.33,0,0,0-1.63-.86A18.3,18.3,0,0,1,25.44,63.63Zm-2.82-1.37-.95-.36Z"/></g></g></svg>