<svg xmlns="http://www.w3.org/2000/svg" viewBox="0 0 233.68 302.83"><defs><style>.cls-1{fill:#fff;}</style></defs><title>TriHook</title><g id="Layer_2" data-name="Layer 2"><g id="Art"><path class="cls-1" d="M230.18,167s-14.95,41.61-26.5,54l16,2.5s-16.5,42.5-40,42.5c-.16,0-4.42,11-4.42,11a23.53,23.53,0,0,0,13.92-.32c22.19-6.66,36-29.87,42.22-54.3C236,204.36,232.65,171.83,230.18,167Z"/><path class="cls-1" d="M101.58,51.45l-.8,14.91h24.4l-.75-13.91a27.26,27.26,0,1,0-22.85-1ZM116,10a17,17,0,0,1,9.71,29.24c-.27.26-.56.49-.85.72-1.41,1.12-6.69,6-11.66,19.32a67.76,67.76,0,0,0-8.62-17.15l-.58-.81c-.88-1.31-7-9.18-7-14.43A17,17,0,0,1,116,10Z"/><polygon class="cls-1" points="99.64 91.36 126.3 91.36 126.06 85.86 99.89 85.86 99.64 91.36"/><polygon class="cls-1" points="100.45 73.36 100.21 78.86 125.74 78.86 125.5 73.36 100.45 73.36"/><path class="cls-1" d="M177.49,215.5s-24.75,47.81-30,51.33l11.33,2c-.28,0-8.17,27.69-25.17,20.69-7.82-3.22-10.94-10.48-12.54-17.84-2.43-11.14-2.72-34-2.79-55.5,0-4.62.2-19.89.29-25.18.26,5.64,3.21,18.45,6.13,30.51C129.79,242.42,135.3,253,144.49,261L151,250.36c-7.08-10.22-10.88-18.9-14.29-30.76-6.09-21.2-7.86-42-9-63.84-.89-16.49-1-56.4-1-56.4h-26.3l-3.85,57s-4.22,35.12-13,64.54c-7.45,25-18.57,45-29,45.13h0L54,266c-23.5,0-40-42.5-40-42.5L30,221C20,210.36,3.5,167,3.5,167,1,171.83-2.3,204.36,2.28,222.35c6,23.57,22.92,48.51,42.22,54.3a24.2,24.2,0,0,0,3.09.69c33.87,7.26,45.94-37.05,52.23-66.37l3.5-21.11s-.31,49.34-.31,51c0,27.69,3.65,47.69,16.12,55.73,7.92,5.1,20.29,8.59,28.19,4.39,5.84-3.1,15.15-5.87,24.74-31.63C179.48,249.36,177.9,228.2,177.49,215.5Z"/></g></g></svg>