<svg xmlns="http://www.w3.org/2000/svg" xmlns:xlink="http://www.w3.org/1999/xlink" viewBox="0 0 2312.24 682.79"><defs><style>.cls-1{isolation:isolate;}.cls-2{fill:#0e3251;}.cls-3{fill:none;}.cls-4{fill:url(#linear-gradient);}.cls-5{fill:url(#linear-gradient-2);}.cls-6{fill:url(#linear-gradient-3);}.cls-7{fill:url(#linear-gradient-4);}.cls-8{fill:url(#linear-gradient-5);}.cls-9{fill:url(#linear-gradient-6);}.cls-10{opacity:0.28;}.cls-11{mix-blend-mode:overlay;}.cls-12{fill:#fff;}</style><linearGradient id="linear-gradient" x1="2159.75" y1="1869.71" x2="2240.91" y2="1950.88" gradientTransform="matrix(-0.99, 0.12, 0.12, 0.99, 3569.34, -1767.37)" gradientUnits="userSpaceOnUse"><stop offset="0" stop-color="#f26522"/><stop offset="0.3" stop-color="#f16524"/><stop offset="0.47" stop-color="#ed642d"/><stop offset="0.6" stop-color="#e6633b"/><stop offset="0.72" stop-color="#dc614e"/><stop offset="0.83" stop-color="#cf5e68"/><stop offset="0.93" stop-color="#c05c87"/><stop offset="1" stop-color="#b259a2"/></linearGradient><linearGradient id="linear-gradient-2" x1="1702" y1="451.65" x2="1705.59" y2="-10.31" gradientTransform="matrix(1, 0.05, -0.05, 1, 84.49, 20.73)" gradientUnits="userSpaceOnUse"><stop offset="0" stop-color="#f26522"/><stop offset="0.18" stop-color="#f06326"/><stop offset="0.38" stop-color="#ec5c33"/><stop offset="0.57" stop-color="#e45049"/><stop offset="0.78" stop-color="#d84066"/><stop offset="0.98" stop-color="#ca2b8d"/><stop offset="1" stop-color="#c92990"/></linearGradient><linearGradient id="linear-gradient-3" x1="1950.35" y1="1933.79" x2="2011.64" y2="1995.08" xlink:href="#linear-gradient"/><linearGradient id="linear-gradient-4" x1="1797.5" y1="1904.99" x2="1855.2" y2="1962.69" xlink:href="#linear-gradient"/><linearGradient id="linear-gradient-5" x1="1758.96" y1="1932.1" x2="1761.63" y2="1932.1" gradientTransform="matrix(-0.99, 0.12, 0.12, 0.99, 3569.34, -1767.37)" gradientUnits="userSpaceOnUse"><stop offset="0" stop-color="#f26522"/><stop offset="1" stop-color="#b06861"/></linearGradient><linearGradient id="linear-gradient-6" x1="1563.75" y1="1844.88" x2="1579.03" y2="1844.88" xlink:href="#linear-gradient-5"/></defs><title>wmfish</title><g class="cls-1"><g id="Layer_2" data-name="Layer 2"><g id="Art"><path class="cls-2" d="M1096.33,78.59c4.15,2.76,24.89,3.41,34.33-.67,9.06-3.92,15.55-10.63,21.66-18.67,4.24-5.59,13.54-16.49,11-24.8-3.45-11.44-18-17.42-27.25-23.31-8.95-5.71-33.83-20.57-43.64-2.36a77.91,77.91,0,0,0-9.3,37.37C1083.28,57.34,1086.82,72.27,1096.33,78.59Z"/><path class="cls-2" d="M462.19,489.72c2.3.35,3.49,1.57,3.79,4.25.27,3,.41,4.47.69,7.45s-1.12,4.44-3.65,4.16c-5.68-.64-14-1.16-19.68-.52-10.21,1.15-13.53,5.76-12.3,16.3,1.85,15.8,2.78,23.7,4.64,39.5,1.24,10.54,5.5,14.41,15.07,13.33a68.54,68.54,0,0,0,11.36-2.63c-1.19-10.46-1.78-15.69-3-26.15l-8.84,1c-2.34.26-3.81-1.08-4.12-3.75l-.89-7.73c-.31-2.67.82-4.31,3.17-4.57,8.34-.94,12.51-1.4,20.85-2.31,2.35-.26,3.81,1.09,4.11,3.76,2,18.07,3,27.11,5,45.19.33,3-.26,4.69-3.13,5.9-6.32,3.1-15.33,6.5-23.19,7.39-20.76,2.35-29.37-7.14-31.86-27.78-1.87-15.5-2.8-23.25-4.66-38.75-2.56-21.38,4.44-32,25.44-34.4C446.79,488.71,455.61,489.09,462.19,489.72Z"/><path class="cls-2" d="M550.34,479.88c2.36-.22,3.94,1.13,4.2,3.81,2.32,24.77,3.48,37.15,5.82,61.92,2,21-6,34-25.49,35.93-19.09,1.87-29.62-8.89-31.85-30.15-2.61-24.81-3.9-37.21-6.49-62-.28-2.68.88-4.3,3.24-4.54l8.27-.84c2.36-.24,3.83,1.11,4.1,3.79,2.57,25.35,3.86,38,6.45,63.36,1,10.27,6.38,15.13,14.66,14.32s12.67-6.64,11.67-16.91c-2.47-25.36-3.7-38-6.14-63.4-.26-2.68.91-4.29,3.28-4.52Z"/><path class="cls-2" d="M593.82,476c2.36-.2,3.8,1.17,4,3.86,3.06,35.69,4.6,53.53,7.7,89.22.23,2.68-.93,4.28-3.25,4.48l-8.13.7c-2.32.2-3.75-1.17-4-3.85-3.2-35.68-4.79-53.52-8-89.2-.24-2.68.95-4.28,3.31-4.49Z"/><path class="cls-2" d="M686.6,506.85c.66,9.31,1,14,1.64,23.27,1.72,24.15-8.11,39-31.21,40.8-6.84.52-13.57.75-20.19.82-2.34,0-3.62-1.36-3.84-4-3-36.48-4.46-54.72-7.41-91.2-.22-2.68.62-4.12,2.68-4.41,6-.84,13.88-1.69,22.16-2.32C672.12,468.11,684.82,481.64,686.6,506.85Zm-44.51-20.41c2.14,27.49,3.22,41.23,5.38,68.72a74.62,74.62,0,0,0,9-.09c11.13-.84,17.45-8.64,16.39-23-.74-10-1.1-15-1.84-25-1.15-15.66-8.5-22.48-19.9-21.61A89.74,89.74,0,0,0,642.09,486.44Z"/><path class="cls-2" d="M754.65,464.48c2.5-.14,3.89,1.27,4,4,.18,3.16.27,4.74.45,7.91.16,2.84-1.06,4.4-3.55,4.54-11.38.65-17.06,1-28.44,1.7.59,9.43.89,14.15,1.48,23.58,10.28-.64,15.42-1,25.71-1.54,2.48-.14,3.87,1.28,4,4,.18,3.11.27,4.66.45,7.76.16,2.68-1.05,4.4-3.52,4.54-10.25.59-15.38.9-25.63,1.54.63,10,.95,15,1.58,25.07,11.24-.7,16.86-1,28.1-1.68,2.46-.14,3.84,1.28,4,4.12l.45,7.91c.16,2.69-1,4.25-3.5,4.39-15.91.91-23.86,1.39-39.77,2.42-2.32.15-3.71-1.26-3.89-3.94-2.37-35.74-3.54-53.62-5.88-89.36-.18-2.69,1-4.26,3.41-4.41C730.36,465.89,738.46,465.4,754.65,464.48Z"/><path class="cls-2" d="M856.95,459.85a4.1,4.1,0,0,1,3.47,4.5c.12,3.11.18,4.66.3,7.77,0,2.85-1.56,4.37-4.05,3.9a76.12,76.12,0,0,0-15.82-1.45c-8.26.35-11.11,4.22-10.82,10.94l.14,3.14c.24,5.38,1.77,7.4,8.67,9.65l11.67,3.85c12.46,4.13,17.28,11,17.85,26.09l.11,2.83c.68,17.93-7.08,28.06-27.61,28.94a70.93,70.93,0,0,1-18-2c-2.35-.49-3.46-1.93-3.58-4.47-.1-3.23-.15-4.84-.25-8.07-.14-3,1.22-4.55,3.84-3.92a62.63,62.63,0,0,0,16.84,2.1c10.1-.43,13.44-4.45,13.16-11.32-.06-1.55-.09-2.33-.16-3.88-.21-5.23-2-7.85-7.16-9.58l-12.83-4.24c-13-4.22-17.59-10.43-18.31-25.81,0-.59,0-.89-.07-1.49-.83-17.77,6.73-28,25.53-28.82A84.13,84.13,0,0,1,856.95,459.85Z"/><path class="cls-2" d="M933.87,457.08c2.5-.06,3.85,1.4,3.92,4.09.08,3.17.12,4.75.2,7.92.07,2.84-1.2,4.36-3.69,4.43-11.38.29-17.08.45-28.46.79.29,9.45.43,14.17.72,23.61,10.29-.31,15.44-.46,25.73-.72,2.48-.06,3.82,1.4,3.89,4.09.08,3.11.12,4.66.2,7.77.07,2.69-1.19,4.37-3.66,4.43-10.26.26-15.39.41-25.65.72.31,10,.46,15.06.77,25.1,11.25-.35,16.87-.5,28.13-.79,2.46-.06,3.79,1.4,3.87,4.24.08,3.17.12,4.75.2,7.92.07,2.69-1.19,4.21-3.64,4.28-15.92.4-23.88.63-39.8,1.15-2.32.08-3.67-1.38-3.76-4.06-1.21-35.8-1.8-53.71-3-89.5-.09-2.69,1.18-4.23,3.54-4.3C909.57,457.72,917.67,457.48,933.87,457.08Z"/><path class="cls-2" d="M1019.78,481.26c0,1.44,0,2.15,0,3.59.11,10.46-4.76,19.93-14.22,24.68,7.66,15.51,11.46,23.27,19,38.81,1.45,3,.44,5.08-2.41,5.11l-9.18.1c-2.07,0-3.37-.86-4.43-2.94-7-14.51-10.46-21.76-17.51-36.24a59.79,59.79,0,0,1-10.16,0c.25,14.17.37,21.25.61,35.43,0,2.69-1.22,4.21-3.55,4.25l-8.14.15c-2.32,0-3.65-1.42-3.7-4.11-.73-35.93-1.08-53.9-1.81-89.84-.07-3.44,1.36-5,4.24-5.17,6.94-.46,14.6-.86,19.73-.95C1010.28,453.81,1019.61,464.51,1019.78,481.26Zm-39.62-11c.2,11.42.3,17.13.49,28.55a68.11,68.11,0,0,0,8.49.46c10.84-.17,15.08-5.6,15-14.42,0-1,0-1.44,0-2.39-.11-8.52-4.5-12.81-15.39-12.64C986.59,469.89,982.78,470.09,980.16,470.29Z"/><path class="cls-2" d="M1103,455.31c2.77,0,3.94,1.81,3.14,4.8-9.4,35.77-14,53.67-23.12,89.48-.52,2.39-1.81,3.59-4,3.59h-12.16c-2.32,0-3.62-1.19-4.14-3.58-9-35.8-13.55-53.69-22.85-89.45-.68-3,.49-4.78,3.12-4.8l9,0c2.23,0,3.69,1.18,4.22,3.72,6.81,31.31,10.16,47,16.76,78.3,6.72-31.34,10.13-47,17-78.33.53-2.55,1.85-3.73,4.09-3.73Z"/><path class="cls-2" d="M1140.88,455.61c2.37,0,3.67,1.53,3.64,4.23-.43,35.82-.65,53.73-1.09,89.55,0,2.69-1.35,4.17-3.67,4.14l-8.15-.09c-2.33,0-3.61-1.53-3.58-4.22.34-35.82.51-53.73.84-89.55,0-2.69,1.36-4.17,3.72-4.15Z"/><path class="cls-2" d="M1217.65,457.45c2.22.65,3.24,2,3.17,4.72-.08,3-.11,4.48-.19,7.47s-1.69,4.45-4.17,3.78a61.4,61.4,0,0,0-14.14-2.43c-11.43-.25-15.18,3.72-15.42,15.83-.29,14.71-.44,22.06-.73,36.77-.24,12,3.57,16.06,14.6,16.31a61.55,61.55,0,0,0,14.07-1.76c2.48-.53,3.88.85,3.93,3.84,0,3.17,0,4.75-.07,7.92-.07,2.54-1.27,4-3.49,4.55a81,81,0,0,1-16.48,1.86c-21.22-.47-28.41-11-28-31.79.27-15.61.4-23.41.67-39,.36-21.07,8.3-31.15,29.64-30.68A69,69,0,0,1,1217.65,457.45Z"/><path class="cls-2" d="M1291,459.3c2.5.09,3.76,1.64,3.66,4.33-.12,3.17-.18,4.75-.31,7.92-.11,2.84-1.48,4.28-4,4.18-11.41-.43-17.1-.63-28.51-1-.31,9.44-.47,14.17-.78,23.61,10.31.34,15.46.52,25.77.9,2.49.09,3.73,1.64,3.63,4.33-.12,3.11-.18,4.66-.3,7.77-.1,2.69-1.47,4.28-3.95,4.19-10.28-.38-15.42-.57-25.7-.9-.33,10-.5,15.06-.84,25.1,11.27.37,16.9.57,28.17,1,2.47.09,3.71,1.64,3.59,4.48-.12,3.17-.19,4.75-.31,7.92-.11,2.69-1.46,4.13-3.92,4-15.95-.61-23.92-.88-39.87-1.37-2.33-.07-3.58-1.61-3.49-4.29,1.1-35.81,1.65-53.71,2.73-89.51.08-2.69,1.45-4.14,3.81-4.07C1266.69,458.41,1274.81,458.68,1291,459.3Z"/><path class="cls-2" d="M379.49,291.17c12.24,16.45,34.22,24.25,56.55,26.66,32.12,3.46,65.15-2.23,94.74-14,17.59-7,44.17-22.32,45.11-44.88,1.16-27.83-21-203.78-21-203.78-.3-11.2-10.31-20-22-19.3l-42.86,2.49c-11.78.68-20.46,10.69-19,21.9L491.7,217c1.89,14.34-8.68,27.35-23.66,29.13-13.88,1.65-26.93-6.94-30.32-19.95L397.82,73.1c-2.7-10.38-13.57-16.88-24.47-14.63L340.7,65.2c-11.38,2.35-18.37,13.27-15.39,24.08C325.31,89.28,365.51,272.38,379.49,291.17Z"/><path class="cls-2" d="M606.07,191.18c1.45,17.18,7.91,44.08,18.77,58.61,29.79,39.88,95.44,35,136.92,19.38,19-7.13,37.94-17.79,36.45-40.55l-1.76-27.54c-.75-11.81-12.61-20.86-26-19.87l-22.84,1.69c-10.43.77-19,7.35-21.17,16.3l-.72,3c-2,8.33-12.21,12.88-21.26,9.51l-2.5-.93c-6.87-2.56-11.51-8.33-11.9-14.82l-6.29-103c-.4-6.55,3.6-12.63,10.23-15.54l3.33-1.46c7.84-3.44,17.51-.49,21.39,6.54l7.21,7.43c7.66,7.89,19,12.24,30.71,11.77l1.36-.06c18.61-.75,33.31-13.69,34.07-30l.16-3.39c-3.12-21.44-19.62-39.8-42.76-47.57l-1.73-.58C708.79,7,652.83,16.75,623.36,41.71c-17.71,15-26.86,36.19-25,58Z"/><path class="cls-2" d="M854.22,277.73l35.13-1.93A20.58,20.58,0,0,0,908.81,255l-.68-72.29,52.09,90.88a20.59,20.59,0,0,0,19.93,10.55l51.69-4.81a20.58,20.58,0,0,0,15.66-31.22L984.12,144.31l61.78-80.74a20.59,20.59,0,0,0,4-24.7S1024.11,23,1013.85,16.68c.81.92-17.38-7.8-25.86-1.62l-80.4,110.38-.88-94.07A20.59,20.59,0,0,0,886.1,11l-36.15,0a20.59,20.59,0,0,0-20.56,20.39L832.51,257A20.59,20.59,0,0,0,854.22,277.73Z"/><path class="cls-2" d="M1211.29,187.84c7.2,2.57,15,3.89,21.46,7.91s11.44,12,8.79,19.15c-1.79,4.82-6.48,8-11.15,10.17a63.38,63.38,0,0,1-32.56,5.82c-10.79-1-21.15-4.69-31.92-5.84s-22.89.9-29.83,9.21c-9.61,11.5-4.43,30.09,7.1,39.55s27.2,12,42.12,13.52c28,2.82,56.95,3.07,83.68-5.9s51.14-28.48,60.06-55.07-1.28-59.79-26.46-72.19c-12.27-6-26.54-6.88-39.19-12.1S1239,124.15,1242.6,111c4.35-16,23.92-22.59,35.66-14.68,6.57,4.42,11.91,17.32,16.42,23.87l10.82,2.67c26.19.52,41.67-9.58,40.34-39.57-1-21.78-16.68-41.23-36.61-50.27s-43.27-8.73-64.46-2.88c-34.6,9.56-65.91,35.52-75.24,70S1177.61,175.8,1211.29,187.84Z"/><path class="cls-2" d="M2168.69,545.84C1542.26,258.67,736.75,318.42,353.52,370.19a782.92,782.92,0,0,0-47.83-183.76l-36.37-92a20.59,20.59,0,0,0-25.41-12l-43.48,13.9a20.59,20.59,0,0,0-12.62,27.79l1.45,3.34a843.61,843.61,0,0,1,64.18,240.95l1.11,9.88c.24,2.1.36,4.21.57,6.31C215.3,390.91,184,396.47,163,400.39A565.87,565.87,0,0,0,105.7,215.31L78.36,161.83A20.58,20.58,0,0,0,51,152.7L11.55,172a20.59,20.59,0,0,0-9.9,26.58l34.79,81.51A434.23,434.23,0,0,1,69.33,491.93l-8.93,93.18a20.59,20.59,0,0,0,15.62,22l54.16,13.2A20.58,20.58,0,0,0,155.46,603l7.39-55.84a565.84,565.84,0,0,0,4.8-66.61q44.82-9,89-17A491,491,0,0,1,243.52,550L217.38,656.73a20.59,20.59,0,0,0,19.81,25.48l65.94.58a20.59,20.59,0,0,0,19.41-13.24l.36-.94a570.15,570.15,0,0,0,37-222.44C1411.8,281.71,2168.69,545.84,2168.69,545.84Z"/><polygon class="cls-3" points="2290.96 286.41 2290.96 286.41 2290.96 286.41 2290.96 286.41"/><polygon class="cls-4" points="1555.07 378.65 1550.43 382.37 1566.17 379.14 1590.47 380.22 1570.66 390.44 1610.78 381.12 1628.59 381.91 1595.58 401.53 1643.39 382.57 1654.25 383.05 1619.97 409.09 1675.39 386.37 1679.26 387.29 1636.6 421.32 1691.64 390.26 1694.4 390.92 1651.46 435.88 1708.34 394.26 1659.64 447.55 1540.1 408.33 1534.24 382.68 1552.32 378.53 1555.07 378.65"/><path class="cls-2" d="M1362.44,411l11,151.23,112.09-168.41,36.44-8.38,5.85,25.63,1.58,6.92,6.74,2.21,119.54,39.22,7.7,2.53,5.47-6,48.7-53.28-8.29-9.24,6.73-7c36.16,4.41,71,10.86,95.07,20.28l.2.07-11.3.69-1.57.1-1.48.52-21.91,7.65-18.84,6.58,15.28,12.83,44.37,37.28,5.07,4.26,6.2-2.31,48.58-18.13,2.1-.78,1.64-1.52,36.08-33.39,7.27-6.73,8.48-2.75,26.9-8.69,30.43,15.47,4,2,4-1.88,33.5-15.69,1.53-.72,1.17-1.22,30.56-31.89.11-.09L2104,355.3c-2.19,9.9,11.17,6.28,11.17,6.28s1.72-4.35,5.39-11.63l8.7-2.81c-5.06,11.37,8,7.84,8,7.84s1.83-4.63,5.8-12.21l4.87-1.51c-7.7,11.07,5.55,8,5.55,8a111.12,111.12,0,0,1,7-11.9c34-10.86,98-32.22,131.27-49.51l.28-.15c9.17-5.46,19.05-12.81,15.94-22.34s-15.29-8.44-19.28-8.06l-2.23.21-12.54,7.74-24.06-1.49a39.05,39.05,0,0,1-11.4-2.45L2250,241.71c6.1-5.62,16.45-8.22,25.59-10.52,1.66-.42,3.3-.83,4.92-1.26,5,2.07,10.65,1.65,13.62,1.22,11-1.64,17.83-7.54,17.62-15.08a11.67,11.67,0,0,0-1.82-10.49c-7.37-9.72-17.64-12-26.69-14.1l-.42-.08c-20.33-3.68-54.31-10-58.94-11.12l-.71-.21c-52.43-13.61-65.45-17.39-72.44-19.41-2.88-.83-4.88-1.41-8-2.23-4.45-1.16-13-4.27-23.93-8.2-51-18.46-156.92-56.79-263.36-53.62l-6.74,1.23L1673.48,69.21l8.18,36.66L1674.5,112l4.26,28.56c-20.86,11.3-86.65,48.43-126.89,87.9l-45.1-8.27-7.85,29.92-6.54,8.84,2.56,17.2c-19.26,15.87-43.76,34.44-53.06,38.5l-225.22,20.11ZM2231,261.19l-5.52-2.7s5.58-1.87,13.89-12.28Zm60,25.22h0Zm-234.15,75.78-2.39,2.5,1.72-2.41ZM1930.21,378l31.84-3.33,62.06-8.15-8,1.62c-3.53.34-36.73,12.14-36.73,12.14l57.36-14.13-50.52,21.59,60-22.51-38.39,23.51,39.67-16.88-21.32,22.25-33.5,15.69Zm-39.06,35.29-21.17,2.4c-4.54.07-51.57,11.26-51.57,11.26l78.11-11.69-73.39,21.47,80.19-20.29-1.81,1.68L1849.43,440l41.39-12-19.07,17.64-48.58,18.13-44.37-37.28,21.91-7.65Zm-356.91-30.57,18.07-4.15,2.76.12-4.64,3.72,15.74-3.22,24.3,1.08-19.8,10.21,40.11-9.31,17.82.79-33,19.62,47.81-19,10.86.48-34.28,26,55.42-22.72,3.86.93-42.66,34,55-31.06,2.77.66-42.95,45,56.88-41.62-48.7,53.28-119.54-39.22Zm-152,146.3L1373.11,404,1255.5,342.49l189-16.87h0l.19-.07c15.14-5.45,59.69-42.7,61.58-44.28l.67-.57-2.81-18.84,2.92-4.06,6.88,4.3L1509,255l.2-.27,1.15-4.38,29.71,7.85-27.56-16,.35-1.35,22.32,3.53-21-8.72.69-2.62,40.7,7.47.58-.6c45.15-46.3,132.87-92.22,133.75-92.67l1-.52-4.51-30.24.6-.51,40.66,6.17L1694,110l-1.7-.61,1.64.15,55.18,5.11L1691.54,98.9l-2.37-.65,2.25.1,63.13,2.83-65-11-1.67-7.48L1812,101.23l-69.81,29.57L1856,107.72c104.05-3.08,208.62,34.76,258.87,52.95,11.64,4.21,20.06,7.26,25,8.55,3,.79,5,1.34,7.73,2.15,7,2,20.17,5.84,72.74,19.49,2,.9,50.73,9.74,60.47,11.51,9.21,2.09,15.63,3.93,20.2,10l.05.32.26.48a2.51,2.51,0,0,1,.4,1c.19,1.25-.64,2.56-2.15,3.43a16.67,16.67,0,0,1-7.11,2.6c-5.11.76-8.39-.4-8.8-1.26l-.57-1.17-4.49,1.2c-1.88.51-3.81,1-5.76,1.48-12.41,3.12-25.25,6.35-33.28,16-12.91,15.6-26.66,19.75-26.8,19.79l-3,.89,2.54,1.88a138,138,0,0,0,15.72,9.82c.55.3,1.13.53,1.69.81l8,5.75,34.94,1.33-3.71-.58,7.8.48,13.34-8.23c6.37-.56,7.27.48,7.28.49.08,1.3-5.08,5.68-10.85,9.12-27.88,14.48-79.48,32.4-114.71,43.95q2.87-3.52,6.24-7.29a149.43,149.43,0,0,0-13.11,9.53c-5.08,1.65-9.69,3.12-13.71,4.39,3.75-6.07,8.29-12.85,13.76-20.07a171.17,171.17,0,0,0-25.28,23.68l-5,1.53-6.43,2.08a320.66,320.66,0,0,1,21.55-32.32s-22.56,16.6-38,37.62l-41.35,13.36-14.48,1.9-95,9.31-31.72,3.32-30.57,3.2,27.4,13.93,18,9.16-13,4.2-10.84.67-105.33-3.86c-75.89-29.51-254.7-30.5-256.5-30.51h-.18l-.18,0L1478.74,384Z"/><polygon points="1693.98 110.03 1692.28 109.42 1693.92 109.57 1694.01 110 1693.98 110.03"/><polygon points="1689.17 98.25 1691.41 98.35 1691.54 98.9 1689.17 98.25"/><path class="cls-2" d="M1802,161.64c.79-.62.34-.25-.7.58A6.37,6.37,0,0,1,1802,161.64Z"/><path class="cls-5" d="M1373.11,404,1382.23,529l96.51-145,79.32-18.23.18,0h.18c1.8,0,180.61,1,256.5,30.51l105.33,3.86,10.84-.67,13-4.2-18-9.16-27.4-13.93,30.57-3.2L1961,365.6l95-9.31,14.48-1.9L2111.83,341c15.41-21,38-37.62,38-37.62a320.62,320.62,0,0,0-21.55,32.32l6.43-2.08,5-1.53a171.18,171.18,0,0,1,25.28-23.68c-5.47,7.22-10,14-13.76,20.07,4-1.27,8.63-2.74,13.71-4.39A149.42,149.42,0,0,1,2178,314.6q-3.38,3.76-6.24,7.29c35.23-11.54,86.83-29.47,114.71-43.95,5.77-3.44,10.93-7.82,10.85-9.11,0,0-.91-1.06-7.28-.49l-13.34,8.23-7.8-.48,3.71.58-34.94-1.33-8-5.75c-.56-.28-1.14-.5-1.69-.81a138,138,0,0,1-15.72-9.82l-2.54-1.88,3-.89c.14,0,13.89-4.2,26.8-19.79,8-9.7,20.87-12.92,33.28-16,1.94-.49,3.87-1,5.76-1.48l4.49-1.2.57,1.17c.42.87,3.7,2,8.8,1.26a16.67,16.67,0,0,0,7.11-2.6c1.52-.86,2.34-2.18,2.15-3.43a2.51,2.51,0,0,0-.4-1l-.26-.48-.05-.32c-4.57-6-11-7.86-20.2-10-9.74-1.76-58.42-10.61-60.47-11.51-52.57-13.65-65.69-17.45-72.74-19.49-2.78-.81-4.7-1.36-7.73-2.15-5-1.29-13.38-4.34-25-8.55-50.25-18.19-154.81-56-258.87-52.95l-113.79,23.08L1812,101.23,1687.91,82.66l1.67,7.48,65,11-63.13-2.83.12.55,57.56,15.78-55.18-5.11.1.43,0,0,33.73,12.08-40.66-6.17-.6.51,4.51,30.24-1,.52c-.88.46-88.6,46.37-133.75,92.67l-.58.6-40.7-7.47-.69,2.62,21,8.72-22.32-3.53-.35,1.35,27.56,16-29.71-7.85-1.15,4.38-.2.27,4.85,7.11-6.88-4.3-2.92,4.06,2.81,18.84-.68.57c-1.89,1.58-46.44,38.83-61.58,44.28l-.19.07h0l-189,16.87Zm849-176.91a6.8,6.8,0,1,0-8.78,7.29,12.3,12.3,0,1,1,8.18-3.6A6.74,6.74,0,0,0,2222.09,227.13Zm-5.07,2a2.12,2.12,0,1,1-3.68-1.89,1.47,1.47,0,0,0,.78.56,1.5,1.5,0,0,0,1.85-1.05A2.09,2.09,0,0,1,2217,229.11Zm-37.61,27.57,38.41-18-28,25.59a3.91,3.91,0,0,0-.32,5c6.12,8.52,12.06,7.07,12.06,7.07s-15.29,8.47-26.13-3.35C2168.31,265.22,2177.58,258,2179.4,256.69ZM2125.87,240c.84-21.11,8.94-38.41,18.92-42-5.9,11.2-9.87,26.61-10.55,43.75-.61,15.4,1.53,29.63,5.59,40.8C2131,277,2125.07,260,2125.87,240Zm-324.59-77.78a6.38,6.38,0,0,1,.7-.58C1802.77,161,1802.32,161.39,1801.28,162.22ZM1452.53,370.8a28.55,28.55,0,0,1-5.83-4.27l-48.14,16.74,43.51-22.75c-.23-.42-.5-.82-.71-1.26a24,24,0,0,1-1.64-4.82l-.08-.14-75.88,30.61,76.08-43a36.34,36.34,0,0,1,2.25-6.68,32.26,32.26,0,0,0,3,14.55c8,16.84,29.71,24.23,53.66,20.22-14.05,6.2-28.56,7.15-39.8,3.58l-37.6,15.17Z"/><path class="cls-2" d="M1446.7,366.53l-48.14,16.74,43.51-22.75c-.23-.42-.5-.82-.71-1.26a24.05,24.05,0,0,1-1.64-4.82l-.08-.14-75.88,30.61,76.08-43a36.34,36.34,0,0,1,2.25-6.68,32.25,32.25,0,0,0,3,14.55c8,16.84,29.71,24.23,53.66,20.22-14.05,6.2-28.56,7.15-39.8,3.58l-37.59,15.17,31.15-17.92A28.53,28.53,0,0,1,1446.7,366.53Z"/><path class="cls-2" d="M2179.4,256.69l38.41-18-28,25.59a3.91,3.91,0,0,0-.32,5c6.12,8.52,12.06,7.07,12.06,7.07s-15.29,8.47-26.13-3.35C2168.31,265.22,2177.58,258,2179.4,256.69Z"/><path class="cls-6" d="M1870,415.65c-4.54.07-51.57,11.26-51.57,11.26l78.11-11.69-73.39,21.47,80.19-20.29-1.81,1.68L1849.43,440l41.39-12-19.07,17.64-48.58,18.13-44.37-37.28,21.91-7.65,90.44-5.56Z"/><path class="cls-7" d="M1930.21,378l31.84-3.33,62.06-8.15-8,1.62c-3.53.34-36.73,12.14-36.73,12.14l57.36-14.13-50.52,21.59,60-22.51-38.39,23.51,39.67-16.88-21.32,22.25-33.5,15.69Z"/><polygon class="cls-8" points="2056.14 362.27 2056.81 362.19 2054.42 364.69 2056.14 362.27"/><path class="cls-2" d="M2144.79,198c-5.9,11.2-9.87,26.61-10.55,43.75-.61,15.4,1.53,29.63,5.59,40.8-8.81-5.53-14.75-22.57-14-42.52C2126.71,218.89,2134.81,201.59,2144.79,198Z"/><path class="cls-9" d="M2225.44,258.49s5.58-1.87,13.89-12.28l-8.37,15Z"/><path class="cls-2" d="M2214.52,221.21a6.79,6.79,0,0,0-1.22,13.21,12.3,12.3,0,1,1,8.18-3.6,6.77,6.77,0,0,0-7-9.61Z"/><path class="cls-2" d="M2214.41,230.6a2.12,2.12,0,0,1-1.48-2.6,2.1,2.1,0,0,1,.4-.77,1.47,1.47,0,0,0,.78.56,1.5,1.5,0,0,0,1.85-1.05,2.09,2.09,0,0,1,1.05,2.39A2.12,2.12,0,0,1,2214.41,230.6Z"/><g class="cls-10"><g class="cls-11"><circle class="cls-12" cx="2071.97" cy="177.31" r="7.41" transform="translate(1561.66 2193.27) rotate(-80.69)"/><circle class="cls-12" cx="2049.37" cy="195.38" r="7.41" transform="translate(1524.9 2186.11) rotate(-80.69)"/><circle class="cls-12" cx="2021.41" cy="182.97" r="5.12" transform="translate(1513.71 2148.13) rotate(-80.69)"/><circle class="cls-12" cx="2044.34" cy="160.31" r="9.92" transform="translate(1555.29 2151.76) rotate(-80.69)"/></g><g class="cls-11"><circle class="cls-12" cx="2011.7" cy="158.54" r="7.41" transform="translate(1529.68 2118.06) rotate(-80.69)"/><circle class="cls-12" cx="1989.1" cy="176.6" r="7.41" transform="translate(1492.92 2110.9) rotate(-80.69)"/><circle class="cls-12" cx="1961.15" cy="164.2" r="5.12" transform="translate(1481.73 2072.92) rotate(-80.69)"/><circle class="cls-12" cx="1984.08" cy="141.53" r="9.92" transform="translate(1523.31 2076.55) rotate(-80.69)"/></g><g class="cls-11"><circle class="cls-12" cx="1960.66" cy="183.91" r="7.41" transform="translate(1461.87 2088.97) rotate(-80.69)"/><circle class="cls-12" cx="1938.07" cy="201.97" r="7.41" transform="matrix(0.16, -0.99, 0.99, 0.16, 1425.1, 2081.8)"/><circle class="cls-12" cx="1910.11" cy="189.57" r="5.12" transform="translate(1413.91 2043.82) rotate(-80.69)"/><circle class="cls-12" cx="1933.04" cy="166.91" r="9.92" transform="translate(1455.49 2047.45) rotate(-80.69)"/></g><g class="cls-11"><circle class="cls-12" cx="1927.73" cy="141.39" r="7.41" transform="translate(1476.23 2020.83) rotate(-80.69)"/><circle class="cls-12" cx="1905.13" cy="159.45" r="7.41" transform="translate(1439.46 2013.66) rotate(-80.69)"/><circle class="cls-12" cx="1877.18" cy="147.05" r="5.12" transform="translate(1428.27 1975.68) rotate(-80.69)"/><circle class="cls-12" cx="1900.11" cy="124.38" r="9.92" transform="translate(1469.85 1979.31) rotate(-80.69)"/></g><g class="cls-11"><circle class="cls-12" cx="1881.18" cy="178.05" r="7.41" transform="translate(1401.03 2005.61) rotate(-80.69)"/><circle class="cls-12" cx="1858.58" cy="196.11" r="7.41" transform="translate(1364.27 1998.45) rotate(-80.69)"/><circle class="cls-12" cx="1830.63" cy="183.71" r="5.12" transform="matrix(0.16, -0.99, 0.99, 0.16, 1353.08, 1960.47)"/><circle class="cls-12" cx="1853.56" cy="161.04" r="9.92" transform="translate(1394.66 1964.1) rotate(-80.69)"/></g><g class="cls-11"><circle class="cls-12" cx="1825.62" cy="158.05" r="7.41" transform="translate(1374.19 1934.02) rotate(-80.69)"/><circle class="cls-12" cx="1803.02" cy="176.11" r="7.41" transform="translate(1337.43 1926.86) rotate(-80.69)"/><circle class="cls-12" cx="1775.06" cy="163.71" r="5.12" transform="translate(1326.24 1888.88) rotate(-80.69)"/><circle class="cls-12" cx="1797.99" cy="141.05" r="9.92" transform="matrix(0.16, -0.99, 0.99, 0.16, 1367.82, 1892.51)"/></g><g class="cls-11"><circle class="cls-12" cx="1803.33" cy="202.4" r="7.41" transform="translate(1311.75 1949.2) rotate(-80.69)"/><circle class="cls-12" cx="1780.73" cy="220.46" r="7.41" transform="translate(1274.98 1942.04) rotate(-80.69)"/><circle class="cls-12" cx="1752.77" cy="208.06" r="5.12" transform="translate(1263.79 1904.06) rotate(-80.69)"/><circle class="cls-12" cx="1775.7" cy="185.4" r="9.92" transform="translate(1305.37 1907.69) rotate(-80.69)"/></g><g class="cls-11"><circle class="cls-12" cx="1743.31" cy="177.84" r="7.41" transform="translate(1285.69 1869.39) rotate(-80.69)"/><circle class="cls-12" cx="1720.72" cy="195.9" r="7.41" transform="translate(1248.92 1862.23) rotate(-80.69)"/><circle class="cls-12" cx="1692.76" cy="183.5" r="5.12" transform="matrix(0.16, -0.99, 0.99, 0.16, 1237.73, 1824.25)"/><circle class="cls-12" cx="1715.69" cy="160.83" r="9.92" transform="translate(1279.31 1827.88) rotate(-80.69)"/></g><g class="cls-11"><circle class="cls-12" cx="1706.95" cy="221.88" r="7.41" transform="translate(1211.74 1870.43) rotate(-80.69)"/><circle class="cls-12" cx="1684.35" cy="239.95" r="7.41" transform="translate(1174.98 1863.26) rotate(-80.69)"/><circle class="cls-12" cx="1656.4" cy="227.54" r="5.12" transform="translate(1163.79 1825.28) rotate(-80.69)"/><circle class="cls-12" cx="1679.33" cy="204.88" r="9.92" transform="translate(1205.37 1828.91) rotate(-80.69)"/></g><g class="cls-11"><circle class="cls-12" cx="1637.63" cy="239.02" r="7.41" transform="translate(1136.73 1816.38) rotate(-80.69)"/><circle class="cls-12" cx="1615.03" cy="257.08" r="7.41" transform="translate(1099.96 1809.22) rotate(-80.69)"/><circle class="cls-12" cx="1587.08" cy="244.68" r="5.12" transform="translate(1088.77 1771.24) rotate(-80.69)"/><circle class="cls-12" cx="1610.01" cy="222.02" r="9.92" transform="translate(1130.36 1774.87) rotate(-80.69)"/></g><g class="cls-11"><circle class="cls-12" cx="1591.27" cy="274.49" r="7.41" transform="translate(1062.87 1800.36) rotate(-80.69)"/><circle class="cls-12" cx="1568.67" cy="292.55" r="7.41" transform="translate(1026.11 1793.2) rotate(-80.69)"/><circle class="cls-12" cx="1540.72" cy="280.15" r="5.12" transform="translate(1014.91 1755.22) rotate(-80.69)"/><circle class="cls-12" cx="1563.65" cy="257.49" r="9.92" transform="translate(1056.5 1758.85) rotate(-80.69)"/></g></g></g></g></g></svg>