<svg xmlns="http://www.w3.org/2000/svg" xmlns:xlink="http://www.w3.org/1999/xlink" viewBox="0 0 1036.89 314.13"><defs><style>.cls-1{isolation:isolate;}.cls-2{fill:#0e3251;}.cls-3{fill:none;}.cls-4{fill:url(#linear-gradient);}.cls-5{fill:url(#linear-gradient-2);}.cls-6{fill:url(#linear-gradient-3);}.cls-7{fill:url(#linear-gradient-4);}.cls-8{fill:url(#linear-gradient-5);}.cls-9{fill:url(#linear-gradient-6);}.cls-10{opacity:0.28;}.cls-11{mix-blend-mode:overlay;}.cls-12{fill:#fff;}</style><linearGradient id="linear-gradient" x1="972.99" y1="1699.06" x2="1008.27" y2="1734.34" gradientTransform="matrix(-0.99, 0.12, 0.12, 0.99, 1510.1, -1642.39)" gradientUnits="userSpaceOnUse"><stop offset="0" stop-color="#f26522"/><stop offset="0.3" stop-color="#f16524"/><stop offset="0.47" stop-color="#ed642d"/><stop offset="0.6" stop-color="#e6633b"/><stop offset="0.72" stop-color="#dc614e"/><stop offset="0.83" stop-color="#cf5e68"/><stop offset="0.93" stop-color="#c05c87"/><stop offset="1" stop-color="#b259a2"/></linearGradient><linearGradient id="linear-gradient-2" x1="763.76" y1="144.68" x2="765.32" y2="-56.11" gradientTransform="matrix(1, 0.05, -0.05, 1, 42.29, 69.31)" gradientUnits="userSpaceOnUse"><stop offset="0" stop-color="#f26522"/><stop offset="0.18" stop-color="#f06326"/><stop offset="0.38" stop-color="#ec5c33"/><stop offset="0.57" stop-color="#e45049"/><stop offset="0.78" stop-color="#d84066"/><stop offset="0.98" stop-color="#ca2b8d"/><stop offset="1" stop-color="#c92990"/></linearGradient><linearGradient id="linear-gradient-3" x1="881.98" y1="1726.91" x2="908.62" y2="1753.55" xlink:href="#linear-gradient"/><linearGradient id="linear-gradient-4" x1="815.54" y1="1714.39" x2="840.62" y2="1739.47" xlink:href="#linear-gradient"/><linearGradient id="linear-gradient-5" x1="798.79" y1="1726.18" x2="799.95" y2="1726.18" gradientTransform="matrix(-0.99, 0.12, 0.12, 0.99, 1510.1, -1642.39)" gradientUnits="userSpaceOnUse"><stop offset="0" stop-color="#f26522"/><stop offset="1" stop-color="#b06861"/></linearGradient><linearGradient id="linear-gradient-6" x1="713.94" y1="1688.27" x2="720.58" y2="1688.27" xlink:href="#linear-gradient-5"/></defs><title>wmfish2</title><g class="cls-1"><g id="Layer_2" data-name="Layer 2"><g id="Art"><path class="cls-2" d="M233.2,246.43c-.17-1.23-.85-1.83-1.92-1.68-3.8.52-5.7.79-9.5,1.33-1.07.15-1.56.92-1.39,2.14l.51,3.54c.18,1.22.86,1.82,1.93,1.67l4-.57,1.69,12a31.13,31.13,0,0,1-5.14,1.36c-4.34.62-6.34-1.1-7-5.93l-2.66-18.1c-.71-4.83.74-7,5.4-7.67a46.16,46.16,0,0,1,9,0c1.16.1,1.74-.66,1.62-2l-.41-3.42a1.89,1.89,0,0,0-1.79-1.91,53.4,53.4,0,0,0-9.71.12c-9.6,1.38-12.65,6.38-11.17,16.18l2.68,17.75c1.43,9.45,5.48,13.69,14.89,12.34a35.14,35.14,0,0,0,10.47-3.69c1.29-.59,1.54-1.39,1.35-2.75Z"/><path class="cls-2" d="M269.81,223.39a1.68,1.68,0,0,0-2-1.71l-3.79.44c-1.08.13-1.6.88-1.46,2.11l3.46,29.1c.56,4.71-1.33,7.43-5.15,7.9s-6.25-1.72-6.84-6.43l-3.65-29.07c-.15-1.23-.84-1.84-1.92-1.7l-3.79.48c-1.08.14-1.59.9-1.43,2.13L247,255.08c1.26,9.75,6.18,14.58,14.86,13.52,8.85-1.08,12.38-7.15,11.27-16.78Z"/><path class="cls-2" d="M289.65,221.21c-.13-1.23-.8-1.85-1.88-1.74l-3.79.4c-1.08.12-1.61.86-1.48,2.1l4.42,41c.13,1.23.79,1.85,1.85,1.74l3.7-.39c1.06-.11,1.57-.86,1.45-2.09Z"/><path class="cls-2" d="M330.54,233c-1-11.59-6.87-17.74-16.82-16.84-3.8.34-7.44.8-10.16,1.22-.95.15-1.32.82-1.2,2.05l4.06,41.9c.12,1.23.71,1.87,1.78,1.83,3-.08,6.09-.23,9.2-.52,10.52-1,14.93-7.85,14-19ZM317,255.38a34,34,0,0,1-4.1.1L310,223.91a41,41,0,0,1,4.13-.52c5.23-.47,8.64,2.62,9.26,9.82l1,11.51C325,251.3,322.12,254.92,317,255.38Z"/><path class="cls-2" d="M365.84,252.51c-.08-1.3-.72-2-1.84-1.88-5.14.33-7.7.51-12.84.87L350.34,240c4.69-.34,7-.5,11.73-.8,1.13-.07,1.68-.87,1.6-2.1l-.23-3.57c-.08-1.23-.72-1.88-1.86-1.81-4.71.31-7.07.47-11.78.81L349,221.66c5.22-.37,7.83-.55,13-.89,1.14-.07,1.7-.8,1.62-2.1l-.23-3.64c-.08-1.24-.72-1.88-1.87-1.81-7.44.48-11.16.74-18.6,1.29-1.09.08-1.64.81-1.54,2,1.24,16.43,1.86,24.65,3.11,41.08.09,1.23.73,1.88,1.79,1.8,7.25-.54,10.88-.79,18.14-1.26,1.12-.07,1.66-.8,1.59-2Z"/><path class="cls-2" d="M413.83,242.39c-.26-6.94-2.46-10.11-8.17-12l-5.35-1.77c-3.17-1-3.87-2-4-4.43l-.07-1.44c-.14-3.09,1.16-4.88,5-5a34.79,34.79,0,0,1,7.27.66c1.14.22,1.85-.48,1.86-1.79L410.2,213a1.88,1.88,0,0,0-1.59-2.07,38.46,38.46,0,0,0-7.84-.64c-8.65.37-12.11,5.11-11.7,13.28l0,.69c.35,7.08,2.48,9.92,8.42,11.86l5.88,1.95c2.36.8,3.18,2,3.28,4.41l.07,1.79c.13,3.16-1.4,5-6,5.21a28.57,28.57,0,0,1-7.7-1c-1.2-.29-1.82.43-1.75,1.81l.13,3.71a1.92,1.92,0,0,0,1.64,2.05,32.32,32.32,0,0,0,8.2.93c9.37-.41,12.92-5.06,12.62-13.31C413.85,243.18,413.85,242.92,413.83,242.39Z"/><path class="cls-2" d="M444.74,247.23c-5.15.1-7.72.16-12.86.3-.12-4.62-.19-6.93-.31-11.55,4.7-.13,7.05-.18,11.75-.28,1.13,0,1.71-.79,1.69-2l-.07-3.58c0-1.24-.64-1.91-1.77-1.89-4.72.1-7.08.15-11.8.28l-.29-10.86c5.23-.14,7.84-.2,13.07-.31,1.15,0,1.73-.72,1.71-2l-.07-3.64c0-1.24-.64-1.91-1.79-1.89-7.45.15-11.18.24-18.63.46-1.09,0-1.67.74-1.63,2,.51,16.47.76,24.71,1.27,41.18,0,1.24.65,1.91,1.71,1.87,7.27-.22,10.91-.31,18.18-.45,1.12,0,1.7-.72,1.67-2,0-1.46,0-2.19-.07-3.64C446.47,247.88,445.86,247.21,444.74,247.23Z"/><path class="cls-2" d="M476.72,234.15a12.16,12.16,0,0,0,6.65-11.28c0-.66,0-1,0-1.65,0-7.7-4.22-12.68-14.33-12.62-2.36,0-5.89.17-9.08.36-1.33.08-2,.78-2,2.36.2,16.53.3,24.8.51,41.34,0,1.24.62,1.92,1.68,1.91l3.72,0c1.06,0,1.65-.7,1.64-1.94-.05-6.52-.08-9.78-.14-16.3a27.39,27.39,0,0,0,4.65,0c3.16,6.7,4.73,10,7.84,16.76a2.06,2.06,0,0,0,2,1.37h4.19c1.3,0,1.78-1,1.13-2.34C481.86,244.92,480.16,241.33,476.72,234.15Zm-7.49-4.78a31.29,31.29,0,0,1-3.89-.25c0-5.25-.07-7.88-.11-13.14,1.21-.08,3-.16,3.92-.17,5,0,7,2,7,5.89,0,.44,0,.66,0,1.1C476.17,226.86,474.2,229.34,469.23,229.37Z"/><path class="cls-2" d="M521.77,209.85l-4.11-.09c-1,0-1.65.52-1.91,1.68-3.42,14.35-5.1,21.54-8.39,35.9-2.8-14.46-4.23-21.69-7.15-36.14a1.85,1.85,0,0,0-1.92-1.74l-4.12,0c-1.21,0-1.76.81-1.47,2.19,4.05,16.51,6,24.77,9.9,41.29a1.79,1.79,0,0,0,1.87,1.68l5.55.08a1.77,1.77,0,0,0,1.86-1.62c4.42-16.41,6.68-24.6,11.29-41C523.56,210.71,523,209.88,521.77,209.85Z"/><path class="cls-2" d="M539.2,210.32l-3.81-.12c-1.09,0-1.71.64-1.75,1.88-.47,16.47-.71,24.71-1.18,41.18,0,1.24.54,1.94,1.6,2l3.72.11c1.06,0,1.68-.64,1.72-1.87.54-16.47.81-24.71,1.34-41.18C540.87,211.06,540.29,210.35,539.2,210.32Z"/><path class="cls-2" d="M574.47,212a31.53,31.53,0,0,0-7.63-1.41c-9.81-.46-13.56,4.1-13.95,13.79l-.71,17.94c-.38,9.55,2.8,14.47,12.48,14.93a37,37,0,0,0,7.54-.66,2,2,0,0,0,1.65-2.05l.13-3.64c0-1.38-.61-2-1.75-1.81a28.07,28.07,0,0,1-6.45.65c-5-.24-6.73-2.16-6.49-7.66l.73-16.9c.24-5.57,2-7.36,7.25-7.11a28,28,0,0,1,6.46,1.28c1.13.33,1.89-.32,2-1.69l.18-3.43A1.89,1.89,0,0,0,574.47,212Z"/><path class="cls-2" d="M608.17,213.8c-7.45-.52-11.17-.75-18.63-1.19-1.09-.06-1.73.59-1.8,1.82-1,16.45-1.43,24.68-2.39,41.13-.07,1.23.48,2,1.54,2,7.27.43,10.9.66,18.17,1.17,1.12.08,1.76-.57,1.84-1.8l.26-3.64c.09-1.3-.45-2-1.58-2.11-5.14-.36-7.71-.52-12.85-.84l.72-11.53c4.7.29,7,.44,11.75.77,1.13.08,1.78-.64,1.87-1.87l.25-3.57c.09-1.23-.46-2-1.6-2-4.72-.32-7.08-.48-11.79-.77l.67-10.85c5.23.32,7.84.5,13.07.86,1.14.08,1.79-.56,1.88-1.87l.25-3.64C609.87,214.6,609.32,213.88,608.17,213.8Z"/><path class="cls-2" d="M504.4,36.16c1.91,1.27,11.45,1.57,15.8-.31,4.17-1.8,7.16-4.89,10-8.59,2-2.57,6.23-7.59,5.08-11.41-1.59-5.27-8.29-8-12.54-10.72S507.13-4.34,502.62,4a35.85,35.85,0,0,0-4.28,17.19C498.39,26.38,500,33.25,504.4,36.16Z"/><path class="cls-2" d="M174.59,134c5.63,7.57,15.74,11.16,26,12.26,14.78,1.59,30-1,43.59-6.46,8.09-3.23,20.32-10.27,20.75-20.65.53-12.81-9.65-93.76-9.65-93.76a9.4,9.4,0,0,0-10.12-8.88l-19.72,1.15a9.08,9.08,0,0,0-8.73,10.08l9.49,72.15a12.09,12.09,0,0,1-10.89,13.4,12.77,12.77,0,0,1-13.95-9.18L183,33.63a9.58,9.58,0,0,0-11.26-6.73l-15,3.1a9,9,0,0,0-7.08,11.08S168.16,125.32,174.59,134Z"/><path class="cls-2" d="M278.84,88c.67,7.91,3.64,20.28,8.63,27,13.71,18.35,43.91,16.08,63,8.92,8.73-3.28,17.46-8.19,16.77-18.66l-.81-12.67c-.35-5.43-5.8-9.6-12-9.14l-10.51.78c-4.8.35-8.73,3.38-9.74,7.5L333.87,93c-.94,3.83-5.62,5.93-9.78,4.38L322.94,97a8,8,0,0,1-5.48-6.82l-2.89-47.38a7.42,7.42,0,0,1,4.71-7.15l1.53-.67a7.83,7.83,0,0,1,9.84,3L334,41.37a18.74,18.74,0,0,0,14.13,5.42l.63,0c8.56-.35,15.32-6.3,15.67-13.81l.07-1.56c-1.43-9.87-9-18.31-19.67-21.88L344,9.24c-17.91-6-43.65-1.53-57.21,10-8.15,6.9-12.36,16.65-11.51,26.67Z"/><path class="cls-2" d="M393,127.78l16.16-.89a9.47,9.47,0,0,0,9-9.55l-.31-33.26,24,41.81a9.47,9.47,0,0,0,9.17,4.85l23.78-2.21a9.47,9.47,0,0,0,7.21-14.36L452.77,66.4l28.43-37.15A9.47,9.47,0,0,0,483,17.88s-11.87-7.29-16.59-10.21c.37.42-8-3.59-11.9-.75l-37,50.78-.41-43.28A9.47,9.47,0,0,0,407.67,5H391a9.47,9.47,0,0,0-9.46,9.38L383,118.23A9.47,9.47,0,0,0,393,127.78Z"/><path class="cls-2" d="M566.07,103.55a29.16,29.16,0,0,1-15,2.68c-5-.44-9.73-2.16-14.69-2.69s-10.53.42-13.73,4.24c-4.42,5.29-2,13.84,3.27,18.2s12.51,5.53,19.38,6.22c12.89,1.3,26.2,1.41,38.5-2.72s23.53-13.1,27.63-25.33-.59-27.51-12.17-33.21c-5.64-2.78-12.21-3.17-18-5.57s-11.2-8.24-9.56-14.31c2-7.38,11-10.39,16.41-6.76,3,2,5.48,8,7.55,11l5,1.23c12,.24,19.17-4.41,18.56-18.21-.45-10-7.67-19-16.84-23.13s-19.91-4-29.66-1.32c-15.92,4.4-30.33,16.34-34.62,32.19s3.72,34.85,19.21,40.38c3.31,1.18,6.89,1.79,9.87,3.64s5.27,5.52,4,8.81C570.38,101.09,568.22,102.53,566.07,103.55Z"/><path class="cls-2" d="M162.65,170.32a360.22,360.22,0,0,0-22-84.54l-16.73-42.3a9.47,9.47,0,0,0-11.69-5.54l-20,6.39a9.47,9.47,0,0,0-5.81,12.78l.67,1.54A388.12,388.12,0,0,1,116.6,169.5l.51,4.54c.11,1,.17,1.94.26,2.9-18.32,2.9-32.71,5.46-42.37,7.26A260.34,260.34,0,0,0,48.63,99.06L36.05,74.45a9.47,9.47,0,0,0-12.59-4.2L5.32,79.12A9.47,9.47,0,0,0,.76,91.35l16,37.5A199.77,199.77,0,0,1,31.9,226.33L27.79,269.2A9.47,9.47,0,0,0,35,279.3l24.92,6.07a9.47,9.47,0,0,0,11.63-8l3.4-25.69a260.34,260.34,0,0,0,2.21-30.65q20.62-4.15,41-7.82a225.88,225.88,0,0,1-6,39.8l-12,49.08a9.47,9.47,0,0,0,9.12,11.72l30.34.27a9.47,9.47,0,0,0,8.93-6.09l.17-.43a262.31,262.31,0,0,0,17-102.34c484-75.66,832.19,45.86,832.19,45.86C709.56,119,339,146.5,162.65,170.32Z"/><polygon class="cls-3" points="1027.64 134.31 1027.64 134.31 1027.64 134.31 1027.64 134.31"/><polygon class="cls-4" points="707.79 174.4 705.77 176.02 712.61 174.62 723.17 175.08 714.56 179.52 732 175.47 739.74 175.82 725.39 184.35 746.17 176.1 750.89 176.31 735.99 187.63 760.09 177.75 761.76 178.16 743.22 192.95 767.14 179.45 768.35 179.74 749.68 199.28 774.4 181.19 753.24 204.35 701.28 187.3 698.73 176.15 706.59 174.35 707.79 174.4"/><path class="cls-2" d="M624.06,188.48l4.8,65.73L677.58,181l15.84-3.64L696,188.51l.69,3,2.93,1,52,17,3.35,1.1,2.38-2.6,21.17-23.16-3.6-4,2.92-3.06c15.72,1.92,30.85,4.72,41.32,8.81l.09,0-4.91.3-.68,0-.64.22-9.52,3.32-8.19,2.86,6.64,5.58,19.29,16.2,2.2,1.85,2.7-1,21.12-7.88.91-.34.71-.66,15.68-14.51,3.16-2.92,3.69-1.2L883,184.72l13.23,6.73,1.72.87,1.75-.82,14.56-6.82.67-.31.51-.53L928.72,170l0,0,17.6-5.69c-1,4.3,4.86,2.73,4.86,2.73s.75-1.89,2.34-5.06l3.78-1.22c-2.2,4.94,3.47,3.41,3.47,3.41s.8-2,2.52-5.31l2.12-.66c-3.35,4.81,2.41,3.46,2.41,3.46a48.3,48.3,0,0,1,3-5.17c14.79-4.72,42.6-14,57.06-21.52l.12-.06c4-2.37,8.28-5.57,6.93-9.71s-6.65-3.67-8.38-3.5l-1,.09-5.45,3.37-10.46-.65a17,17,0,0,1-5-1.06l5-8.51c2.65-2.44,7.15-3.57,11.12-4.57l2.14-.55a11.75,11.75,0,0,0,5.92.53c4.76-.71,7.75-3.28,7.66-6.56a5.07,5.07,0,0,0-.79-4.56c-3.21-4.22-7.67-5.24-11.6-6.13l-.18,0c-8.84-1.6-23.6-4.33-25.62-4.83l-.31-.09c-22.79-5.92-28.45-7.56-31.49-8.44-1.25-.36-2.12-.61-3.49-1-1.93-.5-5.67-1.85-10.4-3.57-22.17-8-68.2-24.68-114.47-23.31l-2.93.53L759.25,39.9l3.55,15.93-3.11,2.66,1.85,12.41c-9.07,4.91-37.66,21-55.15,38.21l-19.6-3.6-3.41,13-2.84,3.84,1.11,7.48c-8.37,6.9-19,15-23.06,16.74l-97.89,8.74Zm377.51-65.14-2.4-1.17s2.42-.81,6-5.34Zm26.08,11h0ZM925.87,167.24l-1,1.09.75-1Zm-55,6.86,13.84-1.45,27-3.54-3.46.71c-1.53.15-16,5.28-16,5.28L917.16,169l-22,9.39,26.09-9.78-16.69,10.22,17.24-7.34-9.27,9.67L898,187.93Zm-17,15.34-9.2,1c-2,0-22.41,4.89-22.41,4.89l34-5.08-31.9,9.33,34.85-8.82-.79.73-22.64,9.53,18-5.24-8.29,7.67-21.12,7.88L805,195.18l9.52-3.32ZM698.73,176.15l7.86-1.81,1.2.05-2,1.62,6.84-1.4,10.56.47-8.61,4.44,17.43-4,7.74.34-14.35,8.53,20.78-8.24,4.72.21L736,187.63l24.09-9.88,1.68.4-18.54,14.79,23.92-13.5,1.2.29-18.67,19.54,24.72-18.09-21.17,23.16-52-17Zm-66.07,63.59-4-54.3-51.12-26.75,82.13-7.33h0l.08,0c6.58-2.37,25.94-18.56,26.77-19.25l.29-.25-1.22-8.19,1.27-1.76,3,1.87-2.11-3.09.09-.12.5-1.9L701.28,122l-12-7,.15-.59,9.7,1.54L690,112.24l.3-1.14L708,114.35l.25-.26C727.91,94,766,74,766.42,73.8l.43-.22-2-13.14.26-.22,17.67,2.68-14.66-5.25-.74-.26.71.07,24,2.22-25-6.86-1-.28,1,0,27.44,1.23L766.25,49l-.73-3.25,53.93,8.07L789.12,66.67l49.46-10c45.23-1.34,90.68,15.11,112.52,23,5.06,1.83,8.72,3.16,10.88,3.72,1.32.34,2.15.58,3.36.93,3.06.89,8.77,2.54,31.62,8.47.89.39,22,4.23,26.28,5,4,.91,6.79,1.71,8.78,4.33l0,.14.11.21a1.09,1.09,0,0,1,.17.42,1.56,1.56,0,0,1-.94,1.49,7.24,7.24,0,0,1-3.09,1.13c-2.22.33-3.65-.17-3.83-.55l-.25-.51-2,.52-2.5.64c-5.4,1.36-11,2.76-14.47,7-5.61,6.78-11.59,8.59-11.65,8.6l-1.32.39,1.1.82a60,60,0,0,0,6.83,4.27c.24.13.49.23.73.35l3.46,2.5,15.19.58-1.61-.25,3.39.21,5.8-3.58c2.77-.24,3.16.21,3.16.21,0,.56-2.21,2.47-4.72,4-12.12,6.29-34.55,14.08-49.86,19.1q1.25-1.53,2.71-3.17a65,65,0,0,0-5.7,4.14l-6,1.91c1.63-2.64,3.6-5.59,6-8.72a74.4,74.4,0,0,0-11,10.29l-2.16.66-2.79.9a139.38,139.38,0,0,1,9.36-14s-9.8,7.22-16.5,16.35l-18,5.81-6.29.83-41.3,4-13.79,1.44-13.29,1.39,11.91,6.06,7.83,4-5.66,1.83-4.71.29L820.73,182c-33-12.83-110.71-13.26-111.49-13.26h-.08l-.08,0-34.48,7.92Z"/><polygon points="768.16 57.64 767.42 57.38 768.14 57.45 768.18 57.63 768.16 57.64"/><polygon points="766.07 52.52 767.05 52.57 767.1 52.81 766.07 52.52"/><path class="cls-2" d="M815.1,80.08c.35-.27.15-.11-.3.25A2.77,2.77,0,0,1,815.1,80.08Z"/><path class="cls-5" d="M628.7,185.44l4,54.3,41.95-63,34.48-7.92.08,0h.08c.78,0,78.5.43,111.49,13.26l45.78,1.68,4.71-.29,5.66-1.83-7.83-4-11.91-6.06,13.29-1.39,13.79-1.44,41.3-4,6.29-.83,18-5.81c6.7-9.14,16.5-16.35,16.5-16.35a139.36,139.36,0,0,0-9.36,14l2.79-.9,2.16-.66a74.4,74.4,0,0,1,11-10.29c-2.38,3.14-4.35,6.09-6,8.72l6-1.91a65,65,0,0,1,5.7-4.14q-1.47,1.64-2.71,3.17c15.31-5,37.74-12.81,49.86-19.1,2.51-1.49,4.75-3.4,4.72-4,0,0-.4-.46-3.16-.21l-5.8,3.58-3.39-.21,1.61.25-15.19-.58L1001,127c-.24-.12-.49-.22-.73-.35a60,60,0,0,1-6.83-4.27l-1.1-.82,1.32-.39c.06,0,6-1.82,11.65-8.6,3.49-4.22,9.07-5.62,14.47-7l2.5-.64,2-.52.25.51c.18.38,1.61.88,3.83.55a7.25,7.25,0,0,0,3.09-1.13,1.56,1.56,0,0,0,.94-1.49,1.09,1.09,0,0,0-.17-.42l-.11-.21,0-.14c-2-2.62-4.78-3.42-8.78-4.33-4.23-.77-25.39-4.61-26.28-5-22.85-5.93-28.55-7.59-31.62-8.47-1.21-.35-2-.59-3.36-.93-2.16-.56-5.82-1.88-10.88-3.72-21.84-7.9-67.29-24.35-112.52-23l-49.46,10,30.34-12.85-53.93-8.07.73,3.25,28.24,4.8L767,52.57l.05.24,25,6.86-24-2.22,0,.19h0l14.66,5.25-17.67-2.68-.26.22,2,13.14-.43.22C766,74,727.91,94,708.29,114.09l-.25.26-17.69-3.25-.3,1.14,9.11,3.79-9.7-1.54-.15.59,12,7-12.91-3.41-.5,1.9-.09.12,2.11,3.09-3-1.87-1.27,1.76,1.22,8.19-.29.25c-.82.69-20.18,16.88-26.77,19.25l-.08,0h0l-82.13,7.33Zm369-76.89a3,3,0,1,0-3.82,3.17,5.35,5.35,0,1,1,3.55-1.57A2.93,2.93,0,0,0,997.71,108.54Zm-2.21.86a.92.92,0,1,1-1.6-.82.64.64,0,0,0,.34.24.65.65,0,0,0,.8-.46A.91.91,0,0,1,995.5,109.4Zm-16.35,12,16.69-7.82-12.16,11.12a1.7,1.7,0,0,0-.14,2.18c2.66,3.7,5.24,3.07,5.24,3.07s-6.65,3.68-11.36-1.45C974.33,125.1,978.36,121.94,979.15,121.39Zm-23.27-7.25c.37-9.18,3.89-16.7,8.22-18.27a45.66,45.66,0,0,0-4.59,19A47.41,47.41,0,0,0,962,132.62C958.12,130.22,955.54,122.81,955.89,114.14ZM814.8,80.33a2.77,2.77,0,0,1,.3-.25C815.45,79.81,815.25,80,814.8,80.33ZM663.22,171a12.41,12.41,0,0,1-2.53-1.86l-20.92,7.27,18.91-9.89c-.1-.18-.22-.36-.31-.55a10.45,10.45,0,0,1-.71-2.1l0-.06-33,13.3,33.07-18.7a15.79,15.79,0,0,1,1-2.9,14,14,0,0,0,1.31,6.33c3.46,7.32,12.91,10.53,23.32,8.79-6.11,2.69-12.42,3.11-17.3,1.56l-16.34,6.59Z"/><path class="cls-2" d="M660.68,169.13l-20.92,7.27,18.91-9.89c-.1-.18-.22-.36-.31-.55a10.45,10.45,0,0,1-.71-2.1l0-.06-33,13.3,33.07-18.7a15.8,15.8,0,0,1,1-2.9,14,14,0,0,0,1.31,6.33c3.46,7.32,12.91,10.53,23.32,8.79-6.11,2.69-12.42,3.11-17.3,1.56l-16.34,6.59L663.22,171A12.4,12.4,0,0,1,660.68,169.13Z"/><path class="cls-2" d="M979.15,121.39l16.69-7.82-12.16,11.12a1.7,1.7,0,0,0-.14,2.18c2.66,3.7,5.24,3.07,5.24,3.07s-6.65,3.68-11.36-1.45C974.33,125.1,978.36,121.94,979.15,121.39Z"/><path class="cls-6" d="M844.66,190.48c-2,0-22.41,4.89-22.41,4.89l34-5.08-31.9,9.33,34.85-8.82-.79.73-22.64,9.53,18-5.24-8.29,7.67-21.12,7.88L805,195.18l9.52-3.32,39.31-2.42Z"/><path class="cls-7" d="M870.84,174.1l13.84-1.45,27-3.54-3.46.71c-1.53.15-16,5.28-16,5.28L917.16,169l-22,9.39,26.09-9.78-16.69,10.22,17.24-7.34-9.27,9.67L898,187.93Z"/><polygon class="cls-8" points="925.58 167.28 925.87 167.25 924.83 168.33 925.58 167.28"/><path class="cls-2" d="M964.11,95.87a45.66,45.66,0,0,0-4.59,19A47.41,47.41,0,0,0,962,132.62c-3.83-2.4-6.41-9.81-6.07-18.48C956.25,105,959.77,97.44,964.11,95.87Z"/><path class="cls-9" d="M999.16,122.17s2.42-.81,6-5.34l-3.64,6.51Z"/><path class="cls-2" d="M994.42,106a2.95,2.95,0,0,0-.53,5.74,5.35,5.35,0,1,1,3.56-1.57,2.94,2.94,0,0,0-3-4.18Z"/><path class="cls-2" d="M994.37,110a.92.92,0,0,1-.65-1.13.91.91,0,0,1,.18-.34.64.64,0,0,0,.34.24.65.65,0,0,0,.8-.46.91.91,0,0,1,.46,1A.92.92,0,0,1,994.37,110Z"/><g class="cls-10"><g class="cls-11"><circle class="cls-12" cx="932.46" cy="86.89" r="3.22" transform="translate(695.8 992.99) rotate(-80.69)"/><circle class="cls-12" cx="922.63" cy="94.74" r="3.22" transform="translate(679.82 989.88) rotate(-80.69)"/><circle class="cls-12" cx="910.48" cy="89.35" r="2.23" transform="translate(674.96 973.37) rotate(-80.69)"/><circle class="cls-12" cx="920.45" cy="79.5" r="4.31" transform="translate(693.03 974.95) rotate(-80.69)"/></g><g class="cls-11"><circle class="cls-12" cx="906.26" cy="78.73" r="3.22" transform="translate(681.9 960.3) rotate(-80.69)"/><circle class="cls-12" cx="896.44" cy="86.58" r="3.22" transform="translate(665.92 957.19) rotate(-80.69)"/><circle class="cls-12" cx="884.29" cy="81.19" r="2.23" transform="translate(661.06 940.68) rotate(-80.69)"/><circle class="cls-12" cx="894.25" cy="71.34" r="4.31" transform="translate(679.13 942.26) rotate(-80.69)"/></g><g class="cls-11"><circle class="cls-12" cx="884.08" cy="89.76" r="3.22" transform="translate(652.43 947.65) rotate(-80.69)"/><circle class="cls-12" cx="874.26" cy="97.61" r="3.22" transform="translate(636.45 944.54) rotate(-80.69)"/><circle class="cls-12" cx="862.11" cy="92.22" r="2.23" transform="translate(631.58 928.03) rotate(-80.69)"/><circle class="cls-12" cx="872.07" cy="82.37" r="4.31" transform="translate(649.66 929.61) rotate(-80.69)"/></g><g class="cls-11"><circle class="cls-12" cx="869.76" cy="71.27" r="3.22" transform="translate(658.67 918.04) rotate(-80.69)"/><circle class="cls-12" cx="859.94" cy="79.13" r="3.22" transform="translate(642.69 914.92) rotate(-80.69)"/><circle class="cls-12" cx="847.79" cy="73.73" r="2.23" transform="translate(637.82 898.42) rotate(-80.69)"/><circle class="cls-12" cx="857.76" cy="63.88" r="4.31" transform="translate(655.9 899.99) rotate(-80.69)"/></g><g class="cls-11"><circle class="cls-12" cx="849.53" cy="87.21" r="3.22" transform="translate(625.98 911.43) rotate(-80.69)"/><circle class="cls-12" cx="839.71" cy="95.06" r="3.22" transform="translate(610 908.31) rotate(-80.69)"/><circle class="cls-12" cx="827.56" cy="89.67" r="2.23" transform="translate(605.14 891.8) rotate(-80.69)"/><circle class="cls-12" cx="837.52" cy="79.82" r="4.31" transform="translate(623.22 893.38) rotate(-80.69)"/></g><g class="cls-11"><circle class="cls-12" cx="825.38" cy="78.52" r="3.22" transform="matrix(0.16, -0.99, 0.99, 0.16, 614.32, 880.31)"/><circle class="cls-12" cx="815.56" cy="86.37" r="3.22" transform="translate(598.34 877.19) rotate(-80.69)"/><circle class="cls-12" cx="803.41" cy="80.98" r="2.23" transform="translate(593.48 860.69) rotate(-80.69)"/><circle class="cls-12" cx="813.37" cy="71.13" r="4.31" transform="translate(611.55 862.26) rotate(-80.69)"/></g><g class="cls-11"><circle class="cls-12" cx="815.69" cy="97.79" r="3.22" transform="translate(587.18 886.9) rotate(-80.69)"/><circle class="cls-12" cx="805.87" cy="105.64" r="3.22" transform="translate(571.2 883.79) rotate(-80.69)"/><circle class="cls-12" cx="793.72" cy="100.25" r="2.23" transform="translate(566.33 867.28) rotate(-80.69)"/><circle class="cls-12" cx="803.68" cy="90.4" r="4.31" transform="translate(584.41 868.86) rotate(-80.69)"/></g><g class="cls-11"><circle class="cls-12" cx="789.61" cy="87.12" r="3.22" transform="translate(575.85 852.22) rotate(-80.69)"/><circle class="cls-12" cx="779.78" cy="94.97" r="3.22" transform="translate(559.87 849.1) rotate(-80.69)"/><circle class="cls-12" cx="767.63" cy="89.58" r="2.23" transform="translate(555 832.59) rotate(-80.69)"/><circle class="cls-12" cx="777.6" cy="79.73" r="4.31" transform="translate(573.08 834.17) rotate(-80.69)"/></g><g class="cls-11"><circle class="cls-12" cx="773.8" cy="106.26" r="3.22" transform="translate(543.71 852.67) rotate(-80.69)"/><circle class="cls-12" cx="763.98" cy="114.11" r="3.22" transform="translate(527.73 849.55) rotate(-80.69)"/><circle class="cls-12" cx="751.83" cy="108.72" r="2.23" transform="matrix(0.16, -0.99, 0.99, 0.16, 522.86, 833.04)"/><circle class="cls-12" cx="761.79" cy="98.87" r="4.31" transform="translate(540.94 834.62) rotate(-80.69)"/></g><g class="cls-11"><circle class="cls-12" cx="743.67" cy="113.71" r="3.22" transform="translate(511.1 829.17) rotate(-80.69)"/><circle class="cls-12" cx="733.85" cy="121.56" r="3.22" transform="matrix(0.16, -0.99, 0.99, 0.16, 495.12, 826.06)"/><circle class="cls-12" cx="721.7" cy="116.17" r="2.23" transform="translate(490.26 809.55) rotate(-80.69)"/><circle class="cls-12" cx="731.66" cy="106.32" r="4.31" transform="translate(508.34 811.13) rotate(-80.69)"/></g><g class="cls-11"><circle class="cls-12" cx="723.52" cy="129.13" r="3.22" transform="translate(479 822.21) rotate(-80.69)"/><circle class="cls-12" cx="713.7" cy="136.98" r="3.22" transform="translate(463.02 819.1) rotate(-80.69)"/><circle class="cls-12" cx="701.55" cy="131.59" r="2.23" transform="translate(458.16 802.59) rotate(-80.69)"/><circle class="cls-12" cx="711.51" cy="121.74" r="4.31" transform="translate(476.23 804.17) rotate(-80.69)"/></g></g></g></g></g></svg>