<svg xmlns="http://www.w3.org/2000/svg" viewBox="0 0 364.61 362.98"><defs><style>.cls-1{fill:#0c3251;}</style></defs><title>YourGuide</title><g id="Layer_2" data-name="Layer 2"><g id="Art"><path class="cls-1" d="M329.9,166c-10.41,0-19.74,1.32-26.1,3.41a121.07,121.07,0,0,0-32-70.13c6.26-2.62,14.8-8.77,23.11-17.08,13.55-13.55,21.38-27.71,17.47-31.61S294.34,54.49,280.79,68c-8.37,8.37-14.55,17-17.14,23.24A121,121,0,0,0,189.6,60.73c2.08-6.36,3.39-15.66,3.39-26C193,15.54,188.51,0,183,0s-10,15.54-10,34.71c0,10.36,1.31,19.66,3.39,26a121,121,0,0,0-74.05,30.56C99.74,85,93.56,76.41,85.19,68,71.63,54.49,57.48,46.67,53.57,50.57S57.49,68.63,71,82.19c8.31,8.31,16.85,14.47,23.11,17.08a121.07,121.07,0,0,0-32,70.6C55.78,167.51,45.86,166,34.71,166,15.54,166,0,170.46,0,176s15.54,10,34.71,10c10.81,0,20.46-1.42,26.82-3.65a121,121,0,0,0,30.06,79.58C85.67,265,78.27,270.56,71,277.79,57.49,291.34,49.67,305.5,53.57,309.4s18.06-3.92,31.61-17.47c7.17-7.17,12.73-14.5,15.81-20.4a121,121,0,0,0,75.07,31.73c-1.89,6.31-3.07,15.18-3.07,25,0,19.17,4.48,34.71,10,34.71s10-15.54,10-34.71c0-9.82-1.18-18.69-3.07-25a121,121,0,0,0,76.43-33c2.9,6.1,8.75,14,16.44,21.67,13.55,13.55,27.71,21.38,31.61,17.47s-3.92-18.06-17.47-31.61c-7.81-7.81-15.81-13.71-21.95-16.57a120.93,120.93,0,0,0,29.45-78.44c6.34,2,15.4,3.21,25.46,3.21,19.17,0,34.71-4.48,34.71-10S349.07,166,329.9,166ZM183,286.47A104.46,104.46,0,1,1,287.45,182,104.58,104.58,0,0,1,183,286.47Z"/><path class="cls-1" d="M223.11,119.66a27,27,0,0,0-6.88-8.57c-2.65-2-4.43-5.25-8.1-5.93-.41-.08-.67-.91-1-1.33l-11.66-1c-1.63,1-3.35,1.21-4.93,1.83-4.32,1.69-8.56,3.61-12.14,6.62-3.95,3.32-6.62,7.39-7.19,12.71a52.77,52.77,0,0,1-1.5,6.47c-.34,2.32.07,4.79-.43,7.06a17.53,17.53,0,0,0,.16,8.77c1.07,3.78,1.27,8,5.05,10.55l-.56,6.49h-3.09l-3.53-2L162.23,160c-.75,1.44-2.28.66-3.51.31l-3.41-1.08-1.53-1.69-4.89-1.67h-5.66l-4.52,4.16c-.7,1.59-1.93,3-2.46,4.55a28.9,28.9,0,0,0-1.31,13.87c.58,3.66,1.77,7.41.35,11.21a34.72,34.72,0,0,0-1,4.19c-3.13,3.11-6.5,6.48-9.91,9.8a6.13,6.13,0,0,1-2,1.32c-2.91,1.12-5.85,2.15-8.61,3.16a16.33,16.33,0,0,0-.54,9.07c1.16,5.18,2.59,10.32,2.15,15.72-.1,1.21,0,2.44,0,4.43,1.74-.28,2.88-.52,4-.65,2.33-.26,4.88-1.16,6.95-.52,3.46,1.07,6.89.95,10.46,1.09,1.69,2.1,4.06,2.47,6.6,2.46,5.59,0,11.18,0,16.78,0h17.88c2.28,3.4,6.33,5.23,7.91,9.3.23.59,1.24,1,2,1.25a18.32,18.32,0,0,0,10.08.34,44.12,44.12,0,0,1,8.5-1c2.13-.09,4.25-.38,6.25-.57a10.43,10.43,0,0,1,7.87-4.67,32.57,32.57,0,0,0,5.11-1.42l.37-3.74c2.37-1.77,2.86-4.08,1.69-6.78a9.43,9.43,0,0,1,0-6.87,15.63,15.63,0,0,0-.55-10.77c1-2.94,2.38-5.74,1.63-9.06-2-2.27-4.95-4-5-7.53l-2.11-2.11-6.49-2.42.71-3.34-4.58-6.83c3.46-1.56,6.1-3.48,7-7.05,0-.1,0-.23.07-.3,2.85-3.1,4.11-6.94,5.17-10.89a34.43,34.43,0,0,0,1.64-10.22c-.13-3.33-.1-6.66-.14-9.76l2.5-3.06,3.94-.23a29,29,0,0,0,1.09-5,14.05,14.05,0,0,0-4.86-11.12A24.8,24.8,0,0,1,223.11,119.66Z"/></g></g></svg>